<svg xmlns="http://www.w3.org/2000/svg" xmlns:xlink="http://www.w3.org/1999/xlink" viewBox="0 0 612.54 490.37"><defs><style>.cls-1{fill:url(#linear-gradient);}.cls-2{fill:url(#linear-gradient-2);}.cls-3{fill:url(#linear-gradient-3);}.cls-4{fill:#92efec;}.cls-5{fill:#11d3d3;}.cls-6{fill:#00b2a9;}.cls-28,.cls-7{fill:#525252;}.cls-8{fill:#64c0f9;}.cls-9{fill:#08a0f4;}.cls-10{fill:#262626;}.cls-11,.cls-34{fill:#0075c4;}.cls-12{fill:url(#linear-gradient-4);}.cls-13{fill:url(#linear-gradient-5);}.cls-14{fill:url(#linear-gradient-6);}.cls-15{fill:url(#linear-gradient-7);}.cls-16{fill:#c1c7cd;}.cls-17{fill:#393939;}.cls-17,.cls-24,.cls-28{fill-rule:evenodd;}.cls-18{fill:#8d8d8d;}.cls-19{fill:url(#linear-gradient-8);}.cls-20{fill:url(#linear-gradient-9);}.cls-21{fill:url(#linear-gradient-10);}.cls-22{fill:url(#linear-gradient-11);}.cls-23{fill:#6f6f6f;}.cls-24,.cls-30{fill:#161616;}.cls-25{fill:#fff;}.cls-26{fill:#e6e6e6;}.cls-27{fill:url(#linear-gradient-12);}.cls-29{fill:#ccc;}.cls-31{fill:url(#linear-gradient-13);}.cls-32{fill:url(#linear-gradient-14);}.cls-33{fill:url(#linear-gradient-15);}.cls-34{opacity:0.5;}.cls-35{fill:url(#linear-gradient-16);}.cls-36{fill:url(#linear-gradient-17);}</style><linearGradient id="linear-gradient" x1="223.76" y1="443.08" x2="246.6" y2="480.71" gradientUnits="userSpaceOnUse"><stop offset="0" stop-opacity="0.3"/><stop offset="1" stop-opacity="0"/></linearGradient><linearGradient id="linear-gradient-2" x1="411.04" y1="280.11" x2="480.03" y2="393.75" xlink:href="#linear-gradient"/><linearGradient id="linear-gradient-3" x1="304.94" y1="231.61" x2="351.72" y2="308.67" xlink:href="#linear-gradient"/><linearGradient id="linear-gradient-4" x1="407.16" y1="266.56" x2="347.54" y2="169.1" xlink:href="#linear-gradient"/><linearGradient id="linear-gradient-5" x1="82.2" y1="306.87" x2="105.05" y2="344.49" xlink:href="#linear-gradient"/><linearGradient id="linear-gradient-6" x1="318.06" y1="170.65" x2="340.91" y2="208.28" xlink:href="#linear-gradient"/><linearGradient id="linear-gradient-7" x1="176.57" y1="306.87" x2="199.42" y2="344.49" xlink:href="#linear-gradient"/><linearGradient id="linear-gradient-8" x1="186.79" y1="333.96" x2="186.17" y2="338.61" xlink:href="#linear-gradient"/><linearGradient id="linear-gradient-9" x1="412.43" y1="225.14" x2="435.28" y2="262.77" xlink:href="#linear-gradient"/><linearGradient id="linear-gradient-10" x1="247.6" y1="265.08" x2="204.07" y2="190.23" xlink:href="#linear-gradient"/><linearGradient id="linear-gradient-11" x1="424.24" y1="164.86" x2="446.52" y2="201.57" gradientUnits="userSpaceOnUse"><stop offset="0" stop-color="#1b546d" stop-opacity="0.5"/><stop offset="1" stop-color="#1b546d" stop-opacity="0"/></linearGradient><linearGradient id="linear-gradient-12" x1="127.06" y1="65.18" x2="126.38" y2="70.32" gradientTransform="matrix(-1, 0, 0, 1, 314.14, 0)" xlink:href="#linear-gradient"/><linearGradient id="linear-gradient-13" x1="272.09" y1="140.44" x2="271.28" y2="146.54" gradientTransform="translate(58.23)" xlink:href="#linear-gradient"/><linearGradient id="linear-gradient-14" x1="625.14" y1="27.64" x2="624.34" y2="33.74" gradientTransform="matrix(-1, 0, 0, 1, 1049.19, 0)" xlink:href="#linear-gradient"/><linearGradient id="linear-gradient-15" x1="183.32" y1="195.51" x2="182.65" y2="200.58" gradientTransform="matrix(-1, 0, 0, 1, 227.45, 0)" xlink:href="#linear-gradient"/><linearGradient id="linear-gradient-16" x1="340.8" y1="448.29" x2="350.84" y2="465.08" gradientTransform="translate(-21.9 -76.16) rotate(-2.47)" gradientUnits="userSpaceOnUse"><stop offset="0" stop-opacity="0.2"/><stop offset="1" stop-opacity="0"/></linearGradient><linearGradient id="linear-gradient-17" x1="331.08" y1="311.41" x2="330.24" y2="317.74" xlink:href="#linear-gradient"/></defs><g id="Layer_2" data-name="Layer 2"><g id="content"><polygon class="cls-1" points="235.93 435.88 188.74 463.13 235.93 490.37 235.93 490.37 235.93 490.37 235.93 490.37 235.93 490.37 283.11 463.13 235.93 435.88 235.93 435.88 235.93 435.88 235.93 435.88 235.93 435.88"/><polygon class="cls-2" points="470.98 245.65 283.05 354.15 424.6 435.65 612.54 327.14 470.98 245.65 470.98 245.65 470.98 245.65 470.98 245.65 470.98 245.65"/><polygon class="cls-3" points="376.68 191.17 188.74 299.67 283.05 354.15 470.98 245.65 376.68 191.17 376.68 191.16 376.68 191.16 376.68 191.16 376.68 191.17"/><polygon class="cls-4" points="141.56 163.46 94.37 190.7 141.56 217.94 141.56 217.94 141.56 217.94 141.56 217.94 141.56 217.94 188.74 190.7 141.56 163.46 141.56 163.46 141.56 163.46 141.56 163.46 141.56 163.46"/><polygon class="cls-5" points="141.56 272.43 141.56 217.94 94.37 190.7 94.37 245.18 141.56 272.43"/><polygon class="cls-6" points="188.74 245.18 188.74 190.7 141.56 217.94 141.56 272.43 188.74 245.18"/><polygon class="cls-7" points="330.23 217.94 377.42 190.7 330.23 163.46 330.23 163.46 330.23 163.46 330.23 163.46 330.23 163.46 283.05 190.7 330.23 217.94 330.23 217.94 330.23 217.94 330.23 217.94 330.23 217.94"/><polygon class="cls-4" points="424.6 54.48 377.42 27.24 330.23 0 283.05 27.24 330.23 54.48 283.05 81.73 235.86 108.97 283.05 136.21 330.23 108.97 377.42 81.73 424.6 108.97 471.79 81.73 424.6 54.48"/><polygon class="cls-8" points="377.42 81.73 330.23 108.97 377.42 136.21 424.6 108.97 377.42 81.73"/><polygon class="cls-7" points="235.86 54.48 188.68 81.73 235.86 108.97 283.05 81.73 235.86 54.48"/><polygon class="cls-8" points="471.79 190.7 424.6 163.46 424.6 217.94 471.79 190.7"/><polygon class="cls-9" points="283.05 245.18 283.05 299.67 330.23 326.91 330.23 272.43 283.05 245.18"/><polygon class="cls-9" points="330.23 108.97 330.23 163.46 377.42 190.7 377.42 136.21 330.23 108.97"/><polygon class="cls-5" points="283.05 27.24 283.05 81.73 330.23 54.48 283.05 27.24"/><polygon points="235.86 217.94 235.86 272.43 283.05 245.18 235.86 217.94"/><polygon points="330.23 217.94 330.23 272.43 377.42 245.18 377.42 190.7 330.23 217.94"/><polygon class="cls-6" points="424.6 108.97 424.6 163.46 471.79 136.21 471.79 81.73 424.6 108.97"/><polygon class="cls-6" points="283.05 136.21 283.05 190.7 330.23 163.46 330.23 108.97 283.05 136.21"/><polygon class="cls-10" points="283.05 190.7 235.86 163.46 235.86 108.97 188.68 81.73 188.68 136.21 188.68 190.7 188.68 245.18 235.86 272.43 235.86 217.94 283.05 245.18 330.23 272.43 330.23 217.94 283.05 190.7"/><polygon class="cls-11" points="424.6 217.94 424.6 163.46 424.6 108.97 377.42 136.21 377.42 190.7 377.42 245.18 330.23 272.43 330.23 326.91 377.42 299.67 424.6 272.43 471.79 245.18 471.79 190.7 424.6 217.94"/><polygon class="cls-5" points="283.05 136.21 235.86 108.97 235.86 163.46 235.86 163.46 235.86 163.46 235.86 163.46 235.86 163.46 283.05 190.7 283.05 136.21 283.05 136.21"/><polygon class="cls-12" points="424.6 217.94 424.6 163.46 424.6 108.97 377.42 136.21 377.42 190.7 377.42 245.18 330.23 272.43 330.23 326.91 377.42 299.67 424.6 272.43 471.79 245.18 471.79 190.7 424.6 217.94"/><polygon class="cls-13" points="94.37 299.67 47.19 326.91 94.37 354.15 94.37 354.15 94.37 354.15 94.37 354.15 94.37 354.15 141.56 326.91 94.37 299.67 94.37 299.67 94.37 299.67 94.37 299.67 94.37 299.67"/><polygon class="cls-14" points="330.23 163.46 283.05 190.7 330.23 217.94 330.23 217.94 330.23 217.94 330.23 217.94 330.23 217.94 377.42 190.7 330.23 163.46 330.23 163.46 330.23 163.46 330.23 163.46 330.23 163.46"/><polygon class="cls-15" points="188.74 299.67 141.56 326.91 188.74 354.15 188.74 354.15 188.74 354.15 188.74 354.15 188.74 354.15 235.93 326.91 188.74 299.67 188.74 299.67 188.74 299.67 188.74 299.67 188.74 299.67"/><polygon class="cls-8" points="188.74 190.7 141.56 217.94 188.74 245.18 188.74 245.18 188.74 245.18 188.74 245.18 188.74 245.18 235.93 217.94 188.74 190.7 188.74 190.7 188.74 190.7 188.74 190.7 188.74 190.7"/><polygon class="cls-9" points="188.74 299.67 188.74 245.18 141.56 217.94 141.56 272.43 188.74 299.67"/><polygon class="cls-11" points="235.93 272.43 235.93 217.94 188.74 245.18 188.74 299.67 235.93 272.43"/><polygon class="cls-7" points="141.56 217.94 94.37 245.18 141.56 272.43 141.56 272.43 141.56 272.43 141.56 272.43 141.56 272.43 188.74 245.18 141.56 217.94 141.56 217.94 141.56 217.94 141.56 217.94 141.56 217.94"/><polygon class="cls-10" points="141.56 326.91 141.56 272.43 94.37 245.18 94.37 299.67 141.56 326.91"/><polygon points="188.74 299.67 188.74 245.18 141.56 272.43 141.56 326.91 188.74 299.67"/><polygon class="cls-8" points="47.19 217.94 0 245.18 47.19 272.43 47.19 272.43 47.19 272.43 47.19 272.43 47.19 272.43 94.37 245.18 47.19 217.94 47.19 217.94 47.19 217.94 47.19 217.94 47.19 217.94"/><polygon class="cls-9" points="47.19 326.91 47.19 272.43 0 245.18 0 299.67 47.19 326.91"/><polygon class="cls-11" points="94.37 299.67 94.37 245.18 47.19 272.43 47.19 326.91 94.37 299.67"/><polygon class="cls-8" points="330.23 272.43 283.05 299.67 330.23 326.91 330.23 326.91 330.23 326.91 330.23 326.91 330.23 326.91 377.42 299.67 330.23 272.43 330.23 272.43 330.23 272.43 330.23 272.43 330.23 272.43"/><polygon class="cls-9" points="330.23 381.4 330.23 326.91 283.05 299.67 283.05 354.15 330.23 381.4"/><polygon class="cls-11" points="377.42 354.15 377.42 299.67 330.23 326.91 330.23 381.4 377.42 354.15"/><polygon class="cls-4" points="188.74 354.15 141.56 381.4 188.74 408.64 188.74 408.64 188.74 408.64 188.74 408.64 188.74 408.64 235.93 381.4 188.74 354.15 188.74 354.15 188.74 354.15 188.74 354.15 188.74 354.15"/><polygon class="cls-5" points="188.74 463.13 188.74 408.64 141.56 381.4 141.56 435.88 188.74 463.13"/><polygon class="cls-6" points="235.93 435.88 235.93 381.4 188.74 408.64 188.74 463.13 235.93 435.88"/><polygon class="cls-4" points="188.74 136.21 141.56 163.46 188.74 190.7 188.74 190.7 188.74 190.7 188.74 190.7 188.74 190.7 235.93 163.46 188.74 136.21 188.74 136.21 188.74 136.21 188.74 136.21 188.74 136.21"/><polygon class="cls-5" points="188.74 245.18 188.74 190.7 141.56 163.46 141.56 217.94 188.74 245.18"/><polygon class="cls-6" points="235.93 217.94 235.93 163.46 188.74 190.7 188.74 245.18 235.93 217.94"/><polygon class="cls-7" points="424.6 217.94 377.42 245.18 424.6 272.43 424.6 272.43 424.6 272.43 424.6 272.43 424.6 272.43 471.79 245.18 424.6 217.94 424.6 217.94 424.6 217.94 424.6 217.94 424.6 217.94"/><polygon class="cls-10" points="424.6 326.91 424.6 272.43 377.42 245.18 377.42 299.67 424.6 326.91"/><polygon points="471.79 299.67 471.79 245.18 424.6 272.43 424.6 326.91 471.79 299.67"/><polygon class="cls-7" points="188.68 81.73 141.49 108.97 188.68 136.21 188.68 136.21 188.68 136.21 188.68 136.21 188.68 136.21 235.86 108.97 188.68 81.73 188.68 81.73 188.68 81.73 188.68 81.73 188.68 81.73"/><polygon class="cls-10" points="188.68 190.7 188.68 136.21 141.49 108.97 141.49 163.46 188.68 190.7"/><polygon points="235.86 163.46 235.86 108.97 188.68 136.21 188.68 190.7 235.86 163.46"/><path d="M178.26,330.72v3.68a11.31,11.31,0,0,0,6.2-1.85l-5.76-5A9.2,9.2,0,0,0,178.26,330.72Z"/><path class="cls-16" d="M171.72,426.63c.11-1.39-.49-2.86-2-2.12-1.2.57-2.68,1.53-2.27,4.47s-.07,2.76-1.76,4.94,2.75,4.81,5.74,3.08c1.38-.81,2.18-2.57,1.39-3.71C171.64,431.61,171.64,427.71,171.72,426.63Z"/><path class="cls-17" d="M172.08,431.66a13.36,13.36,0,0,1,1.07,2,6.12,6.12,0,0,1,.31,1.72,8,8,0,0,1-.83,2.84A11.37,11.37,0,0,1,170,439.6l-.71-.26a8.93,8.93,0,0,0-2.89,2.23c-1.21,1.45-2.47,2.2-5.93,2.58-3.26.36-2.49-1.48-1.08-2.88a40.85,40.85,0,0,0,5.82-7.22c1.53-2.63,2.37-2.64,3.6-1.57C170.29,433.77,171.25,433.39,172.08,431.66Z"/><path class="cls-16" d="M176.06,359.86c-1.51,4.64-6.58,10.51-7,11.29s-1.24,1.91-2,2-1.46-.15-1.12-1.29c1.3-4.45,2.18-7.88,5.81-12.89.44-.61,2.39-3,4-2.33C177.11,357.24,176.4,358.79,176.06,359.86Z"/><path class="cls-16" d="M156.49,418.34c.11-1.35-.48-2.77-2-2.06-1.16.55-2.59,1.48-2.19,4.33s-.07,2.67-1.7,4.79,2.65,4.65,5.55,3c1.34-.78,2.11-2.49,1.35-3.59C156.41,423.16,156.41,419.38,156.49,418.34Z"/><path d="M151.63,383.94a110.28,110.28,0,0,1,11.2-8.06c2.37-1.39,6.45-4,10-5,.83-.25,1.3-1.92,1.68-2.93L195.57,374a47,47,0,0,1,.87,10.59,7.5,7.5,0,0,1-3.25,6.1c-5.26,3.73-16.9,8.27-20.78,9.45a65.88,65.88,0,0,1,1.42,9.27c0,3-1.23,16.37-1.67,20.28,0,.19-.27,1.2-2.41,1.15a2.86,2.86,0,0,1-2.61-1.47c-.81-6.58-3.23-26.33-3.77-28.84-.85-4,.7-5.61,1.79-6.76a88,88,0,0,1,7.15-6.55c-2.27.77-10.73,3.44-14.94,4.3a65.54,65.54,0,0,1,1.35,9.12c.05,3-1.32,16.45-1.7,20.37,0,.39-.38,1.29-2.16,1.24-1.6-.05-2.8-.88-2.9-1.57-1-6.56-3.15-26.41-3.66-28.93C147.61,388.36,148,386.89,151.63,383.94Z"/><path class="cls-17" d="M156.84,423.2a12.47,12.47,0,0,1,1,2,5.44,5.44,0,0,1,.3,1.66,7.77,7.77,0,0,1-.8,2.76,11.08,11.08,0,0,1-2.55,1.29l-.68-.25a8.57,8.57,0,0,0-2.8,2.15c-1.18,1.41-2.39,2.13-5.74,2.5-3.16.35-2.41-1.43-1-2.79a39.09,39.09,0,0,0,5.64-7c1.48-2.54,2.29-2.56,3.48-1.52C155.11,425.25,156,424.88,156.84,423.2Z"/><path class="cls-16" d="M172.36,359.54c.75-6.64.42-11.48,1-15.16.57-3.87,2-6.6,3.54-7.59s2.61-.44,2.7,1.38c.14,3-1,19.43-4.4,22.39C173.45,362.05,172.24,360.62,172.36,359.54Z"/><path class="cls-9" d="M173,348s.29-3.32.64-5,.89-5.82,3.44-6.46c.94-.24,6.36-.69,7.64-.78a7.17,7.17,0,0,1,3.87.74,61.4,61.4,0,0,1,8.85,5.93c3.15,2.34-5.2,27.24-5.2,23,0,2,2.55,6.39,3.31,8.56.51,1.44-1.41,3.49-4,4.1-5,1.17-11.61-1.23-14.48-3.91a10,10,0,0,1-3.05-4.87c.57-2.9,2-4.95,2.26-6.71a18.74,18.74,0,0,0-.28-5.12c-.1-1.27,0-4.09,0-4.09-1.4-1.4-2.29-3.19-1.65-5h0S173.32,348.41,173,348Z"/><path class="cls-11" d="M195.57,374c.18.48.3,1.79-1.66,3-2.6,1.67-6.07,1.37-8.07,1-1.54-.29.8-3.79,1.37-9.41.44-4.33-1-10.35.87-11.63,2.92-2,4.82-8.53,4.82-8.53l1,7.23.38,4.36a38.89,38.89,0,0,0-1.92,5.33C192.27,366.82,194.74,371.84,195.57,374Z"/><path class="cls-7" d="M147.33,382.68h0a.41.41,0,0,1,.23-.35l13.23-8a1.53,1.53,0,0,1,1.38,0L181.41,385c.24.13.35.3.34.46h0l0,.92h0a.39.39,0,0,1-.22.33l-13.24,8a1.56,1.56,0,0,1-1.38,0l-19.24-10.61c-.23-.13-.35-.3-.34-.46h0Z"/><path class="cls-18" d="M181.41,385l-19.24-10.61a1.53,1.53,0,0,0-1.38,0l-13.23,8c-.35.21-.3.57.11.8l19.25,10.61a1.54,1.54,0,0,0,1.37,0l13.24-8C181.88,385.56,181.82,385.21,181.41,385Z"/><path class="cls-16" d="M182.38,335.21l6.73-4.42s-.09,4.58-.09,5.42c0,1.18,2.18,2,1.82,3.18-.32,1.07-2,2.22-5,2.36-1.6.08-3.93-1-4.43-2.08s.95-2,.95-2.19C182.41,337.11,182.38,335.21,182.38,335.21Z"/><path class="cls-19" d="M182.38,335.21l6.73-4.42s-.09,4.58-.09,5.42c0,1.18,2.18,2,1.82,3.18-.32,1.07-2,2.22-5,2.36-1.6.08-3.93-1-4.43-2.08s.95-2,.95-2.19C182.41,337.11,182.38,335.21,182.38,335.21Z"/><path class="cls-16" d="M178.13,325.29c.06-4,3.32-8,7.29-8a7.18,7.18,0,0,1,7.18,7.18,9.36,9.36,0,0,1-1.92,5.93,4.09,4.09,0,0,1-2.13,1.49s-.42,1.67-1.32,2c-1.46.54-3.46,1.27-3.92,1.42-1.91.65-3.28.64-3.46-.43-.3-1.78-2-3.11-1.67-6.16.07-.62.29-1.2.28-1.62C178.44,326.46,178.11,326,178.13,325.29Z"/><path class="cls-16" d="M192.25,370.39c-1.88-6.14,0-13.41,1.36-23.26a6.36,6.36,0,0,1,2.43-4.2c1.59-1.11,2.62,1.83,3,3.44.43,2-1.22,14.06-2.57,20.88a6.85,6.85,0,0,1-1.67,3.61C193.66,371.87,192.56,371.4,192.25,370.39Z"/><path class="cls-16" d="M194.79,371.17c-3.58,4.28-14.69,10.94-15.55,11.4s-1.24-.33-1.31-.88a3,3,0,0,1,.89-2.58c1.91-2.23,10.41-12,15.78-14.91.7-.38,1.64-.35,1.9,1.74S195.23,370.64,194.79,371.17Z"/><path class="cls-16" d="M179,379c.37-.18,1.08-.54,1.37.42a3.19,3.19,0,0,1-.51,2.36,7.88,7.88,0,0,1-1.68,1.8,5.43,5.43,0,0,1-2.5,1.05,22.65,22.65,0,0,0-1.68,2.65c-.32.61-.84.37-.75.09s.6-2.06.76-2.66a.07.07,0,0,0-.11-.07,8.05,8.05,0,0,0-.86.7,11.84,11.84,0,0,0-.85,1.5c-.31.69-.93.55-.88.35a13.31,13.31,0,0,1,.5-1.82c.17-.27.58-1.13.58-1.13a0,0,0,1,0,0,0,7.59,7.59,0,0,0-1,.8,1.92,1.92,0,0,0-.67.89c-.25.65-.89.35-.82.16a8.14,8.14,0,0,1,.54-1.34,11.75,11.75,0,0,1,.76-.9s0-.08-.06-.06-.82.41-1.11.54c-.79.33-1.23-.06-1-.22a32.82,32.82,0,0,1,4.16-3.1C174.09,380.52,177.79,379.59,179,379Z"/><path class="cls-9" d="M198.68,355.49s-.13,1.57-3.39,1c-3.57-.66-3.27-1.86-3.27-1.86a59.63,59.63,0,0,1,1.27-7.31c.58-2.4,2.24-4.61,3.62-4.92,1.18-.26,2.32,2.73,2.26,4.93A71.17,71.17,0,0,1,198.68,355.49Z"/><path class="cls-16" d="M166.3,371.16c-1.27,2.39-3.68,4.9-3.32,6.5,0,0,.61,1.34,1,2.15a3.32,3.32,0,0,0,2.19,1.43c.21.06,1.41,1.31,1.79,1.22.54-.11.72-.47-.09-2.21s-.34-2.44-.34-2.44c.12.91.37,2.39,1,2.15.41-.15.19-1.65.22-2.87a4.83,4.83,0,0,0-.62-2.23c-.27-.59-.55-.66-.33-1.35a14.66,14.66,0,0,1,.8-1.6C170,369.31,167.63,368.65,166.3,371.16Z"/><path class="cls-7" d="M164.4,376.52a2.42,2.42,0,0,0-.77-1.18l-19.39-11h0c-.29-.16-.58.28-.53.61l3.41,18.3a1,1,0,0,0,.51.76L167,394.78a.36.36,0,0,0,.4,0,.41.41,0,0,0,.15-.33v-.05Z"/><path d="M177.73,324.07s.3.8,2.45,1.36a10.76,10.76,0,0,0,5-.34,2.93,2.93,0,0,1,1.65,2.7c.11,2.43-.28,8.86-.18,8.8a21.34,21.34,0,0,0,5.38-.87c2.15-.82,2.15-2.45,2.15-4.27s-.42-8.43-1.56-10.4-2.84-4.09-7.53-4.09a8.3,8.3,0,0,0-6,2.32A6.83,6.83,0,0,0,177.73,324.07Z"/><polygon class="cls-20" points="424.6 217.94 377.42 245.18 424.6 272.43 424.6 272.43 424.6 272.43 424.6 272.43 424.6 272.43 471.79 245.18 424.6 217.94 424.6 217.94 424.6 217.94 424.6 217.94 424.6 217.94"/><polygon class="cls-21" points="235.86 272.43 235.86 108.97 188.68 136.21 188.68 299.67 235.86 272.43"/><polygon class="cls-22" points="424.6 163.46 424.6 217.94 424.6 217.94 424.6 217.94 424.6 217.94 424.6 217.94 471.79 190.7 424.6 163.46 424.6 163.46 424.6 163.46 424.6 163.46 424.6 163.46"/><path class="cls-23" d="M202.58,160.62c-.12-1.43.5-2.93,2.08-2.17,1.22.58,2.74,1.56,2.32,4.57s.07,2.83,1.79,5.06-2.8,4.92-5.86,3.14c-1.42-.82-2.24-2.63-1.43-3.79C202.66,165.72,202.66,161.72,202.58,160.62Z"/><path class="cls-24" d="M202.21,165.76a13.22,13.22,0,0,0-1.09,2.1,6,6,0,0,0-.32,1.76,8.26,8.26,0,0,0,.85,2.91,11.49,11.49,0,0,0,2.69,1.36l.73-.27a9.32,9.32,0,0,1,3,2.28c1.23,1.49,2.52,2.25,6.06,2.64,3.33.37,2.54-1.51,1.11-2.95a41.22,41.22,0,0,1-6-7.38c-1.57-2.69-2.42-2.71-3.68-1.61C204,167.92,203.05,167.53,202.21,165.76Z"/><path class="cls-23" d="M198.14,92.3c1.54,4.75,6.73,10.76,7.18,11.55s1.27,2,2,2.09,1.5-.16,1.16-1.33c-1.34-4.55-2.24-8.06-6-13.18-.45-.63-2.44-3.08-4.09-2.39C197.06,89.62,197.79,91.21,198.14,92.3Z"/><path class="cls-23" d="M218.16,152.13c-.11-1.38.49-2.83,2-2.1,1.19.56,2.66,1.52,2.25,4.43s.07,2.73,1.74,4.89-2.72,4.77-5.68,3.05c-1.37-.8-2.16-2.55-1.39-3.67C218.24,157.07,218.24,153.2,218.16,152.13Z"/><path class="cls-9" d="M223.13,117a112.07,112.07,0,0,0-11.46-8.26c-2.42-1.42-6.6-4-10.22-5.14-.84-.26-1.33-2-1.71-3l-21.56,6.23a47.74,47.74,0,0,0-.9,10.84,7.71,7.71,0,0,0,3.33,6.24c5.39,3.81,17.29,8.46,21.26,9.66a67.33,67.33,0,0,0-1.45,9.49c0,3.11,1.25,16.74,1.71,20.75,0,.19.27,1.22,2.47,1.17a2.9,2.9,0,0,0,2.66-1.5c.84-6.74,3.31-26.94,3.86-29.51.87-4.1-.72-5.73-1.83-6.91a90.36,90.36,0,0,0-7.31-6.7c2.32.78,11,3.52,15.27,4.39a70.34,70.34,0,0,0-1.38,9.34c0,3.11,1.36,16.82,1.75,20.84,0,.39.38,1.31,2.2,1.26,1.64,0,2.87-.89,3-1.6,1-6.71,3.23-27,3.75-29.6C227.24,121.47,226.84,120,223.13,117Z"/><path class="cls-24" d="M217.8,157.11a12.66,12.66,0,0,0-1.06,2,6,6,0,0,0-.3,1.7,7.9,7.9,0,0,0,.82,2.82,11.36,11.36,0,0,0,2.6,1.32l.71-.25a8.86,8.86,0,0,1,2.86,2.2c1.2,1.44,2.44,2.18,5.87,2.55,3.23.36,2.47-1.46,1.08-2.85a39.51,39.51,0,0,1-5.77-7.15c-1.52-2.6-2.35-2.62-3.56-1.56C219.57,159.2,218.62,158.82,217.8,157.11Z"/><path class="cls-23" d="M201.92,92c-.76-6.8-.43-11.75-1-15.51-.58-4-2-6.75-3.62-7.76-1.75-1.09-2.67-.46-2.76,1.41-.15,3,1,19.88,4.5,22.91C200.81,94.55,202.05,93.09,201.92,92Z"/><path class="cls-25" d="M201.27,80.21s-.29-3.39-.66-5.12-.91-5.94-3.52-6.6c-1-.25-6.5-.71-7.82-.8a7.41,7.41,0,0,0-4,.76,62.16,62.16,0,0,0-9,6.07c-3.23,2.39,5.32,27.87,5.32,23.5,0,2-2.61,6.54-3.39,8.75-.52,1.47,1.44,3.57,4.13,4.2,5.09,1.2,11.88-1.26,14.82-4a10.37,10.37,0,0,0,3.12-5c-.58-3-2.07-5.06-2.32-6.86a18.74,18.74,0,0,1,.29-5.24c.11-1.3.18-2.95.18-2.95,2.38-.89,3.3-3.42,2-6.31A1.29,1.29,0,0,0,201.27,80.21Z"/><path class="cls-26" d="M178.18,106.78c-.19.49-.31,1.83,1.7,3.11,2.66,1.71,6.14,1.52,8.18,1.14,1.58-.3-.75-4-1.33-9.74-.45-4.43,1.07-10.58-.89-11.9-3-2-4.94-8.72-4.94-8.72l-1,7.4-.39,4.45a39.73,39.73,0,0,1,2,5.45C181.55,99.43,179,104.56,178.18,106.78Z"/><path class="cls-26" d="M227.54,115.65h0a.41.41,0,0,0-.23-.35l-13.54-8.18a1.59,1.59,0,0,0-1.41,0L192.66,118a.56.56,0,0,0-.35.47h0l0,.94h0a.43.43,0,0,0,.23.34l13.54,8.18a1.59,1.59,0,0,0,1.41,0l19.69-10.86c.24-.13.36-.3.35-.47h0Z"/><path class="cls-25" d="M192.66,118l19.69-10.86a1.59,1.59,0,0,1,1.41,0l13.54,8.18c.36.21.3.58-.12.81L207.49,127a1.59,1.59,0,0,1-1.41,0l-13.54-8.18C192.19,118.6,192.24,118.24,192.66,118Z"/><path class="cls-23" d="M181.58,103.08c1.92-6.29,0-13.72-1.4-23.8A6.55,6.55,0,0,0,177.7,75c-1.63-1.13-2.68,1.88-3,3.53-.44,2,1.24,14.38,2.63,21.36a6.88,6.88,0,0,0,1.71,3.69C180.14,104.59,181.26,104.12,181.58,103.08Z"/><path class="cls-23" d="M179,103.88c3.67,4.38,15,11.19,15.91,11.66s1.28-.33,1.35-.9a3.11,3.11,0,0,0-.92-2.64c-1.95-2.28-10.65-12.29-16.14-15.26-.72-.39-1.68-.35-1.95,1.79S178.52,103.33,179,103.88Z"/><path class="cls-23" d="M195.09,111.88c-.37-.19-1.1-.56-1.39.43a3.23,3.23,0,0,0,.52,2.41,8,8,0,0,0,1.72,1.84,5.64,5.64,0,0,0,2.56,1.08,23.7,23.7,0,0,1,1.72,2.71c.32.62.85.38.76.09s-.61-2.11-.77-2.72a.07.07,0,0,1,.11-.07,8.19,8.19,0,0,1,.88.71,13.18,13.18,0,0,1,.87,1.54c.32.71,1,.56.9.36a14,14,0,0,0-.52-1.87c-.17-.28-.59-1.15-.59-1.15s0-.06,0,0a9.51,9.51,0,0,1,1,.83,2,2,0,0,1,.68.91c.26.66.92.35.84.16a8.16,8.16,0,0,0-.56-1.37c-.17-.26-.77-.92-.77-.92a0,0,0,0,1,.06-.06s.84.42,1.14.55c.8.34,1.25-.06,1-.22a33.71,33.71,0,0,0-4.26-3.18C200.15,113.45,196.36,112.49,195.09,111.88Z"/><path class="cls-25" d="M175,87.84s.13,1.61,3.47,1c3.65-.68,3.34-1.91,3.34-1.91a59.29,59.29,0,0,0-1.3-7.48c-.6-2.45-2.29-4.71-3.71-5-1.21-.27-2.37,2.79-2.31,5A75.67,75.67,0,0,0,175,87.84Z"/><path class="cls-23" d="M208.12,103.87c1.3,2.44,3.77,5,3.4,6.65,0,0-.62,1.37-1,2.2a3.39,3.39,0,0,1-2.24,1.46c-.22.06-1.44,1.34-1.84,1.25s-.73-.48.1-2.26.35-2.5.35-2.5c-.13.93-.38,2.44-1,2.2-.41-.15-.2-1.69-.22-2.93a4.88,4.88,0,0,1,.63-2.28c.28-.61.56-.69.34-1.39a14.64,14.64,0,0,0-.82-1.63C204.32,102,206.76,101.3,208.12,103.87Z"/><path class="cls-26" d="M210.07,109.35a2.47,2.47,0,0,1,.79-1.21l19.83-11.22h0c.29-.16.58.29.53.62l-3.48,18.73a1.07,1.07,0,0,1-.53.77l-19.84,11a.36.36,0,0,1-.41,0,.37.37,0,0,1-.15-.34s0,0,0-.05Z"/><path d="M194.65,61.45v4a23.88,23.88,0,0,0,.72,4.58s-3.53-1.11-4.62-2.21c-.75-.74.26-5.91.51-6.35S194.44,57.14,194.65,61.45Z"/><path class="cls-23" d="M191.67,67.09l-6.88-5.61s.09,5.78.09,6.63c0,1.21-2.24,2-1.86,3.25.32,1.1,2.09,2.28,5.06,2.42,1.64.08,4-1,4.53-2.12s-1-2-1-2.25C191.64,69,191.67,67.09,191.67,67.09Z"/><path class="cls-27" d="M191.67,67.09l-6.88-5.44s.09,5.61.09,6.46c0,1.21-2.24,2-1.86,3.25.32,1.1,2.09,2.28,5.06,2.42,1.64.08,4-1,4.53-2.12s-1-2-1-2.25C191.64,69,191.67,67.09,191.67,67.09Z"/><path class="cls-23" d="M196,56.94c-.07-4.06-3.41-8.22-7.46-8.22a7.35,7.35,0,0,0-7.35,7.35,7.86,7.86,0,0,0,2.15,5.74,1.71,1.71,0,0,0,2,.42s.46,2.64,1.51,3.2a35.28,35.28,0,0,0,3.85,1.73c2,.66,3.36.66,3.54-.44.31-1.82,2.1-3.19,1.71-6.31a14.22,14.22,0,0,1-.28-1.65C195.7,58.14,196,57.63,196,56.94Z"/><path d="M196,56.37s-.05-1.45-2.28-1c-1.76.35-3.33-.26-3.87-1.76a3.65,3.65,0,0,1-1.26,2.84c-1.38,1.37-1.46.5-1.59,2.64-.1,1.8-1.39,1-1.39,2.29a43.31,43.31,0,0,0,2,11.62c-3.23-.67-6.52-2.14-6.36-5.59.11-2.47-.47-11.26-.08-13.39.57-3.16,2.9-5.59,7.7-5.59a8.51,8.51,0,0,1,6.13,2.37A6.45,6.45,0,0,1,196,56.37Z"/><path class="cls-23" d="M183.89,60c0,1.26.57,2.7,1.27,2.7s1.28-1,1.28-2.28-.57-2.29-1.28-2.29S183.89,58.77,183.89,60Z"/><path class="cls-16" d="M313.56,236.09c.12-1.43-.5-2.92-2.08-2.17-1.22.58-2.74,1.57-2.32,4.58s-.07,2.82-1.8,5.05,2.81,4.92,5.87,3.15c1.42-.83,2.23-2.63,1.43-3.8C313.48,241.19,313.47,237.2,313.56,236.09Z"/><path class="cls-16" d="M298,227.61c.11-1.39-.49-2.84-2-2.11-1.18.57-2.65,1.52-2.24,4.43s-.07,2.74-1.74,4.9,2.72,4.76,5.68,3c1.37-.79,2.16-2.54,1.38-3.67C297.9,232.54,297.9,228.67,298,227.61Z"/><path class="cls-28" d="M313.93,241.23a13.73,13.73,0,0,1,1.09,2.1,6.11,6.11,0,0,1,.32,1.76,8.19,8.19,0,0,1-.85,2.91,11.49,11.49,0,0,1-2.69,1.36l-.73-.26a9.2,9.2,0,0,0-3,2.27c-1.23,1.49-2.52,2.25-6.06,2.64-3.33.37-3.81-2.11-2.06-3.14a23.1,23.1,0,0,0,6.91-7.19c1.57-2.68,2.42-2.7,3.68-1.61C312.1,243.4,313.08,243,313.93,241.23Z"/><path class="cls-28" d="M298.33,232.58a13.16,13.16,0,0,1,1.06,2,6.11,6.11,0,0,1,.31,1.71,8,8,0,0,1-.82,2.82,11.36,11.36,0,0,1-2.6,1.32l-.71-.26a8.86,8.86,0,0,0-2.86,2.2c-1.2,1.44-2.45,2.18-5.87,2.56-3.23.35-3.72-2.07-2-3.11a21,21,0,0,0,6.74-6.9c1.52-2.6,2.35-2.62,3.56-1.56C296.57,234.68,297.52,234.3,298.33,232.58Z"/><path class="cls-29" d="M317.37,167.94c-1.54,4.75-7.07,11.56-7.52,12.36a2,2,0,0,1-1.68,1.27c-.67.11-1.91-.21-1.44-1.32,2.12-5,2.52-8.06,6.24-13.19.45-.62,2.44-3.07,4.09-2.38C318.45,165.26,317.73,166.84,317.37,167.94Z"/><path class="cls-9" d="M293,192.42a110.72,110.72,0,0,1,11.47-8.25c2.42-1.42,6.6-4.06,10.22-5.15.84-.25,1.33-2,1.71-3L338,182.26a43,43,0,0,1,.32,10.74c-.09,2.43-1.34,4.23-3.61,5.84-5.38,3.82-16.43,8.95-20.41,10.16a67.08,67.08,0,0,1,1.46,9.49c0,3.11-.07,18.19,0,22.5a6.07,6.07,0,0,1-4.1,1.41c-1.52,0-4-1.68-4.09-2.14-.84-6.74-2-28.29-2.51-30.87-.87-4.1.72-5.73,1.83-6.91a92.24,92.24,0,0,1,7.31-6.7c-2.32.78-11,3.52-15.28,4.4a68.33,68.33,0,0,1,1.39,9.33c0,3.11.17,18.7-.22,22.71,0,.4-2.2,1.33-4,1.28-1.64-.05-3.61-.86-3.71-1.57-1-6.72-2.2-28.94-2.72-31.51C288.9,196.94,289.3,195.43,293,192.42Z"/><path class="cls-29" d="M313.59,167.62c.77-6.8-.33-4.2,1-15.51.46-4,2-6.76,3.62-7.77s2.67-.45,2.76,1.42c.15,3-1,19.87-4.49,22.9C314.7,170.19,313.46,168.72,313.59,167.62Z"/><path class="cls-30" d="M314,157.08s.3-5.57.66-7.3,1.79-5.61,4.4-6.28c.95-.24,6.5-.12,7.81-.21a7.24,7.24,0,0,1,4,.76,96.49,96.49,0,0,1,11.12,7.26c3.23,2.4-3,19-3.47,21.8s-1.31,7-.53,9.26c.52,1.47-1.44,3.57-4.13,4.2-5.09,1.19-11.88-1.26-14.82-4a10.27,10.27,0,0,1-3.12-5c.58-3,1.15-4.7,1.4-6.5a31.28,31.28,0,0,0,.63-5.6c-.11-1.3,0-4.18,0-4.18a7.56,7.56,0,0,1-.57-2.3A8.94,8.94,0,0,1,314,157.08Z"/><path d="M338,182.26c.19.48.2,2-1.8,3.29-2.66,1.7-5.37,1.45-8.15,1.06-1.59-.21.81-4.09,1.4-9.85a21.83,21.83,0,0,1,3.5-10,102,102,0,0,0,4.75-10.27l-1,7.28,3.84,2s-1.85,6.29-2,7.24C338.19,174.56,337.11,180,338,182.26Z"/><path class="cls-29" d="M325.16,143.26l7.59-7s-.1,7.23-.1,8.17c0,1.34,2.47,2.21,2.06,3.59-.37,1.21-2.31,2.52-5.59,2.67-1.81.09-4.44-1.08-5-2.34-.63-1.42,1.07-2.25,1.07-2.48C325.19,145.41,325.16,143.26,325.16,143.26Z"/><path class="cls-31" d="M325.16,141.8l7.59-5.58s-.1,7.23-.1,8.17c0,1.34,2.47,2.21,2.06,3.59-.37,1.21-2.31,2.52-5.59,2.67-1.81.09-4.44-1.08-5-2.34-.63-1.42,1.07-2.25,1.07-2.48C325.19,145.41,325.16,141.8,325.16,141.8Z"/><path class="cls-29" d="M321.11,133.72c-.32-4.05,2.62-8.5,6.66-8.88a7,7,0,0,1,7.64,6.64,6,6,0,0,1-2,5.1l-1,.81s0,.85,0,1.67a3.35,3.35,0,0,1-1.73,2.65l-3.25,1.69c-2,1.14-3.9,1.12-4.19,0-.47-1.78-1.71-3.66-1.67-6.27a14.61,14.61,0,0,0,.13-1.67C321.54,134.88,321.16,134.41,321.11,133.72Z"/><path d="M321.66,130.05a7.31,7.31,0,0,0,4.16.79c2.54-.22,1.93,2.6,2.56,3s1.57.49,1.57,1.39v1.33l2.05-1.09.32,3.34.4.14s2.62-2.76,2.82-5.6c.16-2.2.27-8-5.64-8.89-5.42-.79-9.83,3.56-9.83,3.56l1.21,3.33Z"/><path class="cls-29" d="M333.57,135.8c0,1.27-.57,2.71-1.28,2.71s-1.27-1-1.27-2.29.57-2.29,1.27-2.29S333.57,134.54,333.57,135.8Z"/><path class="cls-29" d="M335.57,178.63c.41-3.47-.19-4.38,0-8.28.15-3.18,1.48-9.36,2.09-13.88a8,8,0,0,1,2.87-4.7c1.63-1.14,2.68,1.87,3.05,3.52.44,2-1,14-2.63,21.36a7.15,7.15,0,0,1-1.71,3.69C338.1,181.37,335.44,179.71,335.57,178.63Z"/><path class="cls-29" d="M339.26,180.66c-3.67,4.38-15,11.2-15.91,11.66s-1.28-.33-1.35-.9a3.12,3.12,0,0,1,.92-2.64c1.95-2.28,10.65-12.29,16.14-15.25.72-.39,1.68-.35,1.95,1.78S339.71,180.12,339.26,180.66Z"/><path class="cls-29" d="M323,188.68c.42-.21,1.22-.61,1.54.47a3.56,3.56,0,0,1-.57,2.67,8.59,8.59,0,0,1-1.9,2,6.13,6.13,0,0,1-2.82,1.2,25.49,25.49,0,0,0-1.9,3c-.36.69-.94.41-.84.1s.67-2.33.85-3a.07.07,0,0,0-.12-.08,8.44,8.44,0,0,0-1,.79,12.75,12.75,0,0,0-1,1.69c-.35.78-1,.62-1,.4a14.12,14.12,0,0,1,.58-2.06c.18-.31.65-1.27.65-1.27s0-.07-.05,0a9.21,9.21,0,0,0-1.13.9,2.23,2.23,0,0,0-.75,1c-.29.73-1,.39-.93.17a9.33,9.33,0,0,1,.61-1.51c.19-.28.86-1,.86-1a.06.06,0,0,0-.07-.08s-.92.47-1.26.61c-.88.37-1.38-.06-1.14-.24a35.92,35.92,0,0,1,4.7-3.51C317.39,190.41,321.57,189.36,323,188.68Z"/><path class="cls-30" d="M343.24,165.9s-.5,1.82-3.84,1.2c-3.65-.67-3.34-1.91-3.34-1.91a92.7,92.7,0,0,1,1.5-9.49c.6-2.45,1.88-4.58,3.33-4.69,1.63-.12,3.39,3,3.33,5.23C344.17,158.12,343.7,162.28,343.24,165.9Z"/><path class="cls-29" d="M307.2,179.43c-1.47,2.76-4.25,5.67-3.84,7.51,0,0,.71,1.55,1.16,2.48a3.82,3.82,0,0,0,2.53,1.66c.24.06,1.62,1.5,2.07,1.4.62-.13.83-.54-.11-2.55s-.39-2.82-.39-2.82c.14,1,.42,2.76,1.14,2.49.47-.18.23-1.92.26-3.31a5.51,5.51,0,0,0-.72-2.58c-.31-.68-.63-.77-.38-1.57a17.93,17.93,0,0,1,.93-1.84C311.5,177.3,308.74,176.53,307.2,179.43Z"/><path class="cls-23" d="M440.81,123.29c-.12-1.43.5-2.92,2.08-2.17,1.22.58,2.74,1.56,2.32,4.57s.07,2.83,1.8,5.06-2.81,4.92-5.87,3.14c-1.42-.82-2.23-2.63-1.43-3.79C440.89,128.39,440.9,124.39,440.81,123.29Z"/><path class="cls-23" d="M456.39,114.8c-.11-1.38.49-2.83,2-2.1,1.19.56,2.66,1.52,2.25,4.43s.07,2.73,1.74,4.89-2.72,4.77-5.68,3c-1.37-.8-2.16-2.55-1.38-3.67C456.47,119.74,456.47,115.87,456.39,114.8Z"/><path class="cls-24" d="M440.44,128.43a13.22,13.22,0,0,0-1.09,2.1,6,6,0,0,0-.32,1.76,8.26,8.26,0,0,0,.85,2.91,11.49,11.49,0,0,0,2.69,1.36l.73-.27a9.32,9.32,0,0,1,3,2.28c1.23,1.49,2.52,2.25,6.06,2.64,3.33.37,3.81-2.11,2.06-3.15a23.05,23.05,0,0,1-6.91-7.18c-1.57-2.69-2.42-2.71-3.68-1.61C442.27,130.59,441.29,130.2,440.44,128.43Z"/><path class="cls-24" d="M456,119.78a12.66,12.66,0,0,0-1.06,2,6,6,0,0,0-.31,1.7,7.9,7.9,0,0,0,.82,2.82,11,11,0,0,0,2.6,1.32l.71-.25a8.86,8.86,0,0,1,2.86,2.2c1.2,1.44,2.45,2.18,5.87,2.55,3.23.36,3.72-2.06,2.05-3.1a21.12,21.12,0,0,1-6.74-6.9c-1.52-2.6-2.35-2.62-3.56-1.56C457.8,121.87,456.85,121.49,456,119.78Z"/><path class="cls-23" d="M437,55.14c1.54,4.74,7.07,11.56,7.52,12.36a2.07,2.07,0,0,0,1.68,1.27c.67.11,1.91-.21,1.44-1.33-2.12-5-2.52-8.06-6.24-13.18-.45-.62-2.44-3.08-4.09-2.39C435.92,52.46,436.64,54,437,55.14Z"/><path d="M461.37,79.62a112.25,112.25,0,0,0-11.47-8.26c-2.42-1.42-6.6-4-10.22-5.14-.84-.26-1.33-2-1.71-3l-21.56,6.23a43,43,0,0,0-.32,10.75c.09,2.42,1.34,4.23,3.61,5.84A101.38,101.38,0,0,0,440.11,96.2a66.94,66.94,0,0,0-1.46,9.48c0,3.11.07,18.19,0,22.5a6,6,0,0,0,4.1,1.42c1.52,0,4-1.68,4.09-2.14.84-6.74,2-28.3,2.51-30.87.87-4.1-.72-5.73-1.83-6.91a90.36,90.36,0,0,0-7.31-6.7c2.32.78,11,3.52,15.28,4.39a68.72,68.72,0,0,0-1.39,9.34c0,3.11-.17,18.7.22,22.71,0,.4,2.2,1.33,4,1.28,1.64,0,3.61-.87,3.71-1.57,1-6.72,2.2-28.94,2.72-31.52C465.47,84.14,465.07,82.63,461.37,79.62Z"/><path class="cls-23" d="M440.78,54.81c-.77-6.79.33-4.19-1-15.51-.46-4-2-6.75-3.62-7.76-1.75-1.09-2.67-.45-2.76,1.41-.15,3,1,19.88,4.49,22.91C439.67,57.38,440.91,55.92,440.78,54.81Z"/><path class="cls-4" d="M440.38,44.28s-.3-5.57-.66-7.3-1.79-5.62-4.4-6.28c-.95-.24-6.5-.12-7.81-.22a7.42,7.42,0,0,0-4,.76,97.72,97.72,0,0,0-11.12,7.27c-3.23,2.39,3,19,3.47,21.8s1.31,7,.53,9.25c-.52,1.48,1.44,3.57,4.13,4.21,5.09,1.19,11.88-1.26,14.82-4a10.33,10.33,0,0,0,3.12-5c-.58-3-1.15-4.69-1.4-6.49a31.38,31.38,0,0,1-.63-5.6c.11-1.3,0-4.19,0-4.19A7.45,7.45,0,0,0,437,46.2,8.94,8.94,0,0,0,440.38,44.28Z"/><path class="cls-5" d="M416.41,69.45c-.19.49-.2,2,1.8,3.3,2.66,1.7,5.37,1.44,8.15,1.06,1.59-.22-.81-4.1-1.4-9.85a20.22,20.22,0,0,0-4.16-10.67c-2.34-2.73-4.09-9.62-4.09-9.62l1,7.28-3.84,2s1.85,6.29,2,7.24C416.18,61.76,417.26,67.24,416.41,69.45Z"/><path class="cls-26" d="M462.14,78.76h0a.43.43,0,0,0-.24-.36l-13.54-8.18a1.59,1.59,0,0,0-1.41,0L427.26,81.12a.55.55,0,0,0-.34.47h0l0,.94h0a.41.41,0,0,0,.23.34l13.54,8.18a1.59,1.59,0,0,0,1.41,0l19.69-10.86a.56.56,0,0,0,.35-.47h0Z"/><path class="cls-25" d="M427.26,81.12,447,70.26a1.59,1.59,0,0,1,1.41,0l13.54,8.18c.36.22.31.58-.11.81L442.1,90.08a1.59,1.59,0,0,1-1.41,0l-13.54-8.18C426.79,81.71,426.84,81.35,427.26,81.12Z"/><path class="cls-23" d="M429.21,30.46l-7.59-7s.1,7.23.1,8.17c0,1.34-2.47,2.21-2.06,3.59.37,1.21,2.31,2.51,5.59,2.67,1.81.08,4.44-1.09,5-2.35s-1.07-2.24-1.07-2.47C429.18,32.61,429.21,30.46,429.21,30.46Z"/><path class="cls-32" d="M429.21,29l-7.59-5.57s.1,7.23.1,8.17c0,1.34-2.47,2.21-2.06,3.59.37,1.21,2.31,2.51,5.59,2.67,1.81.08,4.44-1.09,5-2.35s-1.07-2.24-1.07-2.47C429.18,32.61,429.21,29,429.21,29Z"/><path class="cls-23" d="M433.26,20.91c.32-4-2.62-8.49-6.66-8.87A7,7,0,0,0,419,18.68a6,6,0,0,0,2,5.1l1,.81s0,.84,0,1.67a3.36,3.36,0,0,0,1.73,2.65c1.41.74,2.82,1.45,3.25,1.69,2,1.14,3.9,1.11,4.19,0,.47-1.79,1.71-3.67,1.67-6.27a14.78,14.78,0,0,1-.13-1.67C432.83,22.08,433.21,21.61,433.26,20.91Z"/><path d="M432.71,17.25a7.26,7.26,0,0,1-4.16.78c-2.54-.21-1.93,2.61-2.56,3s-1.64.36-1.64,1.27V23.6l-2-1L422.05,26l-.4.15A12.9,12.9,0,0,1,418.94,21c-.51-2.41-.39-8.57,5.53-9.34S433,16.5,433,16.5l.09,2Z"/><path class="cls-23" d="M420.76,22.67c0,1.26.57,2.71,1.27,2.71s1.28-1,1.28-2.29-.57-2.29-1.28-2.29S420.76,21.41,420.76,22.67Z"/><path class="cls-23" d="M418.8,65.83c-.41-3.47.19-4.38,0-8.28-.15-3.18-1.48-9.36-2.09-13.88A8.08,8.08,0,0,0,413.84,39c-1.63-1.13-2.68,1.88-3,3.53-.44,2,1,14,2.63,21.36a7.15,7.15,0,0,0,1.71,3.69C416.27,68.57,418.93,66.9,418.8,65.83Z"/><path class="cls-23" d="M415.11,67.86c3.67,4.38,15,11.19,15.91,11.66s1.28-.33,1.35-.9a3.12,3.12,0,0,0-.92-2.64c-1.95-2.28-10.65-12.29-16.14-15.26-.72-.38-1.68-.35-1.95,1.79S414.66,67.31,415.11,67.86Z"/><path class="cls-23" d="M431.4,75.87c-.42-.2-1.22-.61-1.54.48a3.52,3.52,0,0,0,.57,2.66,8.43,8.43,0,0,0,1.9,2,6.17,6.17,0,0,0,2.82,1.19,25.11,25.11,0,0,1,1.9,3c.36.68.94.41.84.09s-.67-2.32-.85-3a.08.08,0,0,1,.12-.08,8.44,8.44,0,0,1,1,.79,13.37,13.37,0,0,1,1,1.7c.35.78,1.05.62,1,.39a14.88,14.88,0,0,0-.58-2.06c-.18-.3-.65-1.27-.65-1.27s0-.07.05,0a8.74,8.74,0,0,1,1.13.91,2.23,2.23,0,0,1,.75,1c.29.73,1,.39.93.17a9,9,0,0,0-.61-1.51c-.19-.28-.86-1-.86-1a.05.05,0,0,1,.07-.07s.92.47,1.26.61c.88.37,1.38-.06,1.14-.25a35.87,35.87,0,0,0-4.7-3.5C437,77.61,432.8,76.55,431.4,75.87Z"/><path class="cls-4" d="M411.13,53.1s.5,1.82,3.84,1.2c3.65-.68,3.34-1.91,3.34-1.91a92.7,92.7,0,0,0-1.5-9.49c-.6-2.46-1.88-4.58-3.33-4.69-1.63-.12-3.39,3-3.33,5.23C410.2,45.31,410.67,49.48,411.13,53.1Z"/><path class="cls-23" d="M447.17,66.63c1.47,2.76,4.25,5.66,3.84,7.51,0,0-.71,1.54-1.16,2.48a3.84,3.84,0,0,1-2.53,1.65c-.24.07-1.62,1.51-2.07,1.41-.62-.13-.83-.54.11-2.56s.39-2.82.39-2.82c-.14,1.06-.42,2.76-1.14,2.49-.47-.17-.23-1.91-.26-3.31a5.5,5.5,0,0,1,.72-2.57c.31-.69.63-.78.38-1.57a16.91,16.91,0,0,0-.93-1.84C442.87,64.49,445.63,63.73,447.17,66.63Z"/><path class="cls-29" d="M59.44,289.81c-.11-1.41.5-2.89,2.06-2.15,1.21.57,2.71,1.55,2.29,4.52s.07,2.79,1.77,5-2.77,4.86-5.79,3.1c-1.4-.81-2.21-2.59-1.41-3.74C59.53,294.84,59.53,290.9,59.44,289.81Z"/><path class="cls-24" d="M59.08,294.89A12.3,12.3,0,0,0,58,297a6.26,6.26,0,0,0-.32,1.74,8.09,8.09,0,0,0,.84,2.87,11.67,11.67,0,0,0,2.66,1.35l.72-.26a8.93,8.93,0,0,1,2.92,2.24c1.23,1.47,2.49,2.23,6,2.61,3.3.37,2.52-1.49,1.1-2.91A40.26,40.26,0,0,1,66,297.3c-1.55-2.65-2.39-2.67-3.63-1.59C60.89,297,59.91,296.63,59.08,294.89Z"/><path class="cls-29" d="M55.06,222.31c1.52,4.69,6.65,10.62,7.09,11.41s1.26,1.93,2,2.06,1.48-.16,1.14-1.31c-1.32-4.5-2.21-8-5.88-13-.45-.62-2.42-3-4-2.36C54,219.66,54.71,221.22,55.06,222.31Z"/><path class="cls-29" d="M74.84,281.42c-.11-1.37.48-2.8,2-2.08,1.17.56,2.62,1.5,2.22,4.38s.07,2.7,1.71,4.84-2.68,4.71-5.61,3c-1.36-.79-2.13-2.52-1.37-3.63C74.92,286.3,74.92,282.48,74.84,281.42Z"/><path class="cls-25" d="M79.75,246.66a108.05,108.05,0,0,0-11.33-8.16c-2.38-1.4-6.52-4-10.09-5.08-.84-.25-1.32-1.94-1.69-3l-21.3,6.15a47.09,47.09,0,0,0-.89,10.71,7.58,7.58,0,0,0,3.29,6.16c5.32,3.77,17.08,8.37,21,9.56a65.4,65.4,0,0,0-1.44,9.37c0,3.07,1.24,16.54,1.69,20.5,0,.19.27,1.21,2.44,1.16a2.87,2.87,0,0,0,2.63-1.49c.82-6.65,3.27-26.61,3.81-29.15.86-4.06-.71-5.67-1.8-6.84A90.29,90.29,0,0,0,58.85,250c2.29.77,10.84,3.48,15.09,4.34a67.22,67.22,0,0,0-1.36,9.22c0,3.08,1.34,16.63,1.72,20.59,0,.39.38,1.3,2.18,1.25,1.62,0,2.83-.88,2.94-1.58,1-6.63,3.18-26.7,3.69-29.24C83.81,251.12,83.41,249.63,79.75,246.66Z"/><path class="cls-24" d="M74.49,286.34a12.87,12.87,0,0,0-1,2,5.57,5.57,0,0,0-.3,1.68,7.87,7.87,0,0,0,.81,2.79,11.46,11.46,0,0,0,2.57,1.3l.7-.26A8.92,8.92,0,0,1,80.05,296c1.18,1.42,2.41,2.15,5.8,2.53,3.19.35,2.43-1.45,1.06-2.82a39.35,39.35,0,0,1-5.7-7.07c-1.5-2.57-2.32-2.59-3.52-1.54C76.23,288.41,75.29,288,74.49,286.34Z"/><path class="cls-29" d="M58.79,222c-.75-6.72-.42-11.61-1-15.33-.57-3.91-2-6.67-3.58-7.67s-2.63-.44-2.72,1.4c-.15,3,1,19.64,4.44,22.63C57.69,224.53,58.92,223.08,58.79,222Z"/><path class="cls-9" d="M58.15,210.36s-.29-3.35-.65-5.06-.9-5.87-3.48-6.53c-.94-.24-6.42-.69-7.72-.78a7.15,7.15,0,0,0-3.91.75,61.73,61.73,0,0,0-9,6C30.26,207.1,38.7,232.27,38.7,228c0,2-2.58,6.46-3.35,8.65-.51,1.46,1.43,3.53,4.08,4.15,5,1.18,11.74-1.24,14.64-3.95a10.19,10.19,0,0,0,3.09-4.93c-.58-2.93-2-5-2.29-6.78a18.34,18.34,0,0,1,.29-5.18c.1-1.28,0-4.13,0-4.13,1.41-1.41,2.31-3.23,1.67-5h0S57.83,210.74,58.15,210.36Z"/><path class="cls-11" d="M35.34,236.61c-.19.49-.31,1.81,1.67,3.08,2.63,1.68,6.14,1.38,8.16,1,1.55-.29-.81-3.82-1.39-9.5-.44-4.38,1.06-10.46-.88-11.76-2.95-2-4.87-8.62-4.87-8.62l-1,7.31-.38,4.4a39.31,39.31,0,0,1,1.94,5.39C38.67,229.34,36.17,234.42,35.34,236.61Z"/><path class="cls-29" d="M48.66,197.39l-6.8-5.54s.1,5.71.1,6.55c0,1.2-2.21,2-1.84,3.22.32,1.08,2.06,2.25,5,2.39,1.63.07,4-1,4.49-2.1s-1-2-1-2.22C48.64,199.32,48.66,197.39,48.66,197.39Z"/><path class="cls-33" d="M48.66,197.39,41.86,192s.1,5.54.1,6.38c0,1.2-2.21,2-1.84,3.22.32,1.08,2.06,2.25,5,2.39,1.63.07,4-1,4.49-2.1s-1-2-1-2.22C48.64,199.32,48.66,197.39,48.66,197.39Z"/><path class="cls-29" d="M53,187.36c-.06-4-3.36-8.11-7.37-8.11a7.27,7.27,0,0,0-7.27,7.26,7.77,7.77,0,0,0,2.13,5.67,1.68,1.68,0,0,0,2,.41s.46,2.61,1.5,3.17a36.92,36.92,0,0,0,3.79,1.71c1.94.65,3.32.64,3.5-.44.3-1.8,2.07-3.15,1.69-6.23-.07-.62-.29-1.21-.28-1.64C52.65,188.55,53,188.05,53,187.36Z"/><path class="cls-29" d="M38.69,233c1.9-6.21,0-13.55-1.38-23.51a6.4,6.4,0,0,0-2.45-4.25c-1.61-1.12-2.65,1.86-3,3.49-.44,2,1.22,14.21,2.59,21.1a6.88,6.88,0,0,0,1.69,3.65C37.27,234.45,38.38,234,38.69,233Z"/><path class="cls-29" d="M36.12,233.74c3.62,4.33,14.85,11.07,15.72,11.53s1.26-.33,1.33-.9a3.06,3.06,0,0,0-.91-2.6c-1.92-2.25-10.52-12.15-15.95-15.08-.71-.38-1.65-.34-1.92,1.77S35.67,233.21,36.12,233.74Z"/><path class="cls-29" d="M52.05,241.65c-.37-.19-1.09-.55-1.38.42a3.22,3.22,0,0,0,.51,2.39,8.28,8.28,0,0,0,1.7,1.81,5.6,5.6,0,0,0,2.53,1.07,23.69,23.69,0,0,1,1.7,2.68c.32.61.84.37.75.09s-.6-2.09-.76-2.69a.07.07,0,0,1,.11-.07,7.18,7.18,0,0,1,.87.71,12.18,12.18,0,0,1,.86,1.51c.31.7.94.56.89.36a15.4,15.4,0,0,0-.51-1.85c-.17-.27-.59-1.13-.59-1.13s0-.07.05,0a8.17,8.17,0,0,1,1,.81,2,2,0,0,1,.68.9c.26.66.91.36.83.16a7.47,7.47,0,0,0-.55-1.35c-.17-.26-.76-.91-.76-.91s0-.08.06-.06.82.42,1.12.54c.79.34,1.24-.05,1-.22A33.82,33.82,0,0,0,58,243.65C57,243.2,53.3,242.26,52.05,241.65Z"/><path class="cls-9" d="M32.19,217.9s.13,1.58,3.43,1c3.61-.66,3.3-1.88,3.3-1.88a59.3,59.3,0,0,0-1.28-7.39c-.59-2.43-2.26-4.65-3.67-5-1.19-.27-2.34,2.75-2.28,5A75.86,75.86,0,0,0,32.19,217.9Z"/><path class="cls-29" d="M64.92,233.73c1.28,2.42,3.72,5,3.36,6.58,0,0-.62,1.35-1,2.17a3.41,3.41,0,0,1-2.22,1.45c-.21,0-1.42,1.31-1.81,1.23s-.73-.48.1-2.24.34-2.47.34-2.47c-.13.92-.37,2.42-1,2.18-.41-.15-.2-1.67-.23-2.9a5,5,0,0,1,.63-2.25c.27-.6.56-.68.33-1.37a14.07,14.07,0,0,0-.81-1.62C61.16,231.86,63.57,231.2,64.92,233.73Z"/><path d="M53,186.8s0-1.43-2.25-1c-1.74.34-3.29-.27-3.82-1.74a3.6,3.6,0,0,1-1.25,2.8c-1.36,1.36-1.44.49-1.57,2.61-.1,1.78-1.54,1.25-1.54,2.54,0,1.81-.66,1.94-.66,1.94-3-1.84-4.45-4.57-3.55-9.49.58-3.12,2.88-5.53,7.61-5.53A8.37,8.37,0,0,1,52,181.29,6.36,6.36,0,0,1,53,186.8Z"/><path d="M42.39,183.45c1.73-3,1.1-4.85-.63-5-2.72-.27-4.43,3.5-4.76,7-.2,2-.07,9.2,0,10.48.18,2.59.59,7.14,3.79,8.45,3,1.23,4.41,2.53,4.55,4.13,1.3-1.3,1.58-4.87-.77-7.72a9.91,9.91,0,0,1-2.66-7C41.92,192,40.65,186.45,42.39,183.45Z"/><path class="cls-29" d="M41,190.43c0,1.25.57,2.67,1.26,2.67s1.27-1,1.27-2.26-.57-2.26-1.27-2.26S41,189.18,41,190.43Z"/><path class="cls-30" d="M341.7,331.53c6,12,12.12,24.54,12.12,24.54l2.05.43s-6.08-12.71-12.23-25.42Z"/><path class="cls-23" d="M321.07,343.15c-.56,7.49-3.32,19.81-5.05,22.94-.35.63-1.28,1.17-1.72,1s-.51-.66-.49-1.49c0-1.31.41-5.5.59-11.23.15-5,.77-10.63,3.19-12.8.34-.3,1.5-1.42,2.65-.9C321,341,321.13,342.41,321.07,343.15Z"/><path class="cls-23" d="M316.15,346.64c-.7-2.61-.55-5.31-.74-8.36-.33-5.4-.45-11.18.81-14.41a7.22,7.22,0,0,1,2.16-3.4c1.52-1.12,3.08-1,3.53,1.14.41,1.94-.21,15-.89,21.68a5.91,5.91,0,0,1-2.51,4.26A1.44,1.44,0,0,1,316.15,346.64Z"/><path class="cls-23" d="M317.14,363.91a17,17,0,0,1-.24,7.41,6.78,6.78,0,0,0-.23,1.92c0,.21.67,1.43.77,2,.06.39-.34.5-.43.43s-1.21-1.32-1.21-1.32.49,1.94.22,2.5a.84.84,0,0,1-.7.42,3.69,3.69,0,0,1-.27.6c-.3.44-.75-.1-.84-.29-.58-1.25-1.44-1.63-1.55-2.33-.18-1.11-.13-1.87-.38-3.45-.22-1.39.77-3,1.46-7a4.18,4.18,0,0,1,1.59-1.95C316.36,362.18,317,363,317.14,363.91Z"/><path class="cls-23" d="M322.64,420.36a2,2,0,0,0-2.84-2,5.13,5.13,0,0,0-2.31,4.4c.25,2.82-.91,3.21-2.46,5.22s1.16,3.89,2.24,3.3c2.87-1.55,1.24.52,4-1.08a2.87,2.87,0,0,0,1.4-3.48C322,425.46,322.51,421.34,322.64,420.36Z"/><path class="cls-23" d="M352.05,417.69c-.25-1.43-1.19-2-2.43-1-.55.43-2.74,2.59-1.91,4.59,1.09,2.62,1.57,2.81.69,5.19s1.47,4.94,3.68,2.73.95.84,3.1-1.51a3.26,3.26,0,0,0-.22-4.18C353.49,422.33,352.22,418.66,352.05,417.69Z"/><path d="M318.4,364.49c.64-4,2.08-10.53,2.08-10.53s-1.19,4.86,8.31,6.53a19.62,19.62,0,0,0,14.62-3.05c1.23,5.35,1.12,7.72,1.23,12.45.19,8.29-1.47,21.2-1.25,23.61.2,2.21,2.71,4.94,4.59,9.54s4.41,12.94,5.54,16.37c.3.89-1.12,2-3,2.79-1.52.62-3.71.5-4-.19-2.42-6.06-6.81-15.5-9.18-20.09a34.32,34.32,0,0,1-3.12-9c-1.12-5.84-2.72-13.12-3.82-17-1.92,4.3-6.53,11.85-6.89,15.69-.31,3.27,1.33,6,1.33,10.89,0,3.19-.17,15.35-.76,21.33-.09.94-2.3,1.08-4.41,1.08S316,423.84,316,423c-.09-5.59-.77-16.39-.77-21.56,0-3.64-1-7.9-.67-10.81C315.13,385.62,316.49,376.52,318.4,364.49Z"/><path class="cls-9" d="M320.16,346.79c-.16-2.74-1.05-8.14-1.29-11.22a9.88,9.88,0,0,1-4.06-.94s-.1-5.45.26-10c.31-4,1.61-5.88,3.6-6.57,3.09-1.07,10.69-3.2,12.95-2.27,4.18,1.71,12.56,5.57,13.93,7.76,1.09,1.75,0,4.72-.62,6.57,0,0-1.78,21.8-1.68,23,0,.49-.37.65,1.34,5.79-2,1.31-5.74,2.14-8.45,2.48-6.41.8-12.05-.55-16.08-5.25C320.08,355.32,320.26,348.56,320.16,346.79Z"/><path class="cls-34" d="M344.93,330.09s-1.78,21.8-1.68,23c0,.49-.37.65,1.34,5.79-2,1.31-5.74,2.14-8.45,2.48,0,0,.63-22.82,3.24-29.57C342.1,324.77,345.18,329.32,344.93,330.09Z"/><path class="cls-24" d="M322.29,424.92a18.35,18.35,0,0,1,1.07,1.52c1,1.56-.32,5.12-.32,5.12-1.17.68-2.58,1.42-2.58,1.42l-.83-.3c-1,.44-1.85,1.71-3.14,2.9s-3.68,2.18-7.13,2.18c-3.27,0-3.48-1.9-1.22-3.3,1.32-.82,5.87-4.7,7.42-7.57,1.43-2.68,2.24-2.22,3.47-1.15C320.51,427,321.47,426.65,322.29,424.92Z"/><path class="cls-24" d="M353.42,421.35a7.07,7.07,0,0,1,1.69.75c1.64,1,2.38,4.79,2.38,4.79a9.55,9.55,0,0,1-2.33,3.13l-1-.13a8.29,8.29,0,0,0-1.71,2.61c-.5,1.11-1.43,2.88-2.68,3.57a11.3,11.3,0,0,1-4.63,1.27c-2.26.1-3.19-.73-2.36-1.78.66-.85,1.88-1.55,3.35-3,.8-.79,1.72-4.16,2-6.54s.87-2.53,2.45-2.19C352.57,424.23,353.44,423.21,353.42,421.35Z"/><path class="cls-26" d="M354.69,352.43h0L352.25,351a1.81,1.81,0,0,0-1.86.06l-17.62,11.21a3.34,3.34,0,0,0-1.54,2.95l.69,16.1a1.81,1.81,0,0,0,1,1.52l2.82,1.59-.17-.13a1.82,1.82,0,0,0,2.08.1l17.62-11.21a3.35,3.35,0,0,0,1.54-2.95l-.7-16.1A1.81,1.81,0,0,0,354.69,352.43Zm-.57-.05a1.57,1.57,0,0,0-.3.05A1.57,1.57,0,0,1,354.12,352.38Zm-19.23,31a1.85,1.85,0,0,1-.09-.49A1.85,1.85,0,0,0,334.89,383.4Zm.31.56.18.21Zm-.24-.42a2.39,2.39,0,0,0,.13.28A2.39,2.39,0,0,1,335,383.54Zm18.73-31.08a1.62,1.62,0,0,0-.42.2A1.62,1.62,0,0,1,353.69,352.46Zm.58-.08a1.53,1.53,0,0,1,.3,0A1.53,1.53,0,0,0,354.27,352.38Z"/><path class="cls-35" d="M334.11,366.82l.69,16.09a1.83,1.83,0,0,0,2.81,1.47l17.62-11.21a3.35,3.35,0,0,0,1.54-2.95l-.7-16.1a1.82,1.82,0,0,0-2.8-1.46l-17.62,11.21A3.3,3.3,0,0,0,334.11,366.82Z"/><path class="cls-30" d="M339.37,380.4l.11,2.65a.3.3,0,0,0,.46.24l2.89-1.84a.55.55,0,0,0,.26-.49l-.12-2.64a.3.3,0,0,0-.46-.24l-2.89,1.84A.52.52,0,0,0,339.37,380.4Z"/><path class="cls-30" d="M350.88,373.11l.11,2.64a.3.3,0,0,0,.46.24l2.9-1.84a.54.54,0,0,0,.25-.48l-.11-2.65a.31.31,0,0,0-.47-.24l-2.89,1.84A.56.56,0,0,0,350.88,373.11Z"/><path class="cls-23" d="M350.11,351.86c1.7,10.64-3.27,22-3.64,23.67s-1.33,2.4-2,1.7c-.87-.89-.37-5.35-.06-10.51.29-4.89.12-11.23,1.29-14.21a5.42,5.42,0,0,1,1.62-2.24C348.45,349.36,349.9,350.53,350.11,351.86Z"/><path class="cls-23" d="M346.86,358.2c-2.32-3.72-2.43-5.16-3.56-9.68-1.78-7.12-2.91-14.14-2.88-18.37a8.5,8.5,0,0,1,1.1-4.69c1.25-2,2.73-1.62,3.73-.33,2.24,2.87,4.91,20.89,5.19,27.95a9.29,9.29,0,0,1-.68,4.15C348.93,358.74,347.44,359.13,346.86,358.2Z"/><path class="cls-23" d="M346.44,374.76c.36,2.62,1.37,7.43,1.06,9a7.67,7.67,0,0,1-1.15,2.27c-.26.21-1.18.74-1.62,1.09a14.47,14.47,0,0,0-1.36,1.53.69.69,0,0,1-1.17-.65,10,10,0,0,0,.63-2.91c0-.63-.2-2.76-.2-2.76l-.33,2.07c-.31,2-1.89,1.53-1.89,1.53s.66-5.3.8-5.76c.33-1.09,1.87-3.31,2.28-4.55a4,4,0,0,1,1.19-1.92C345.67,373.1,346.32,373.84,346.44,374.76Z"/><path class="cls-9" d="M349.67,339.2s.67,1.86-3.71,2.28c-4.78.45-4.68-1.08-4.68-1.08a76.28,76.28,0,0,1-1.18-9.89c-.13-3.28.27-7,1.93-7.91,1.41-.77,3-.88,4.35,2.56C347.27,327.42,348.72,334.46,349.67,339.2Z"/><path class="cls-30" d="M324.2,316.43a5.58,5.58,0,0,0-2.24,4.71c-.18,9.55,11.85,48.94,11.85,48.94l-2.23-1.16s-11.36-37.45-11.48-47.69a5.94,5.94,0,0,1,1.54-4.12Z"/><path class="cls-23" d="M325.72,314.34l7.89-7.33s-.1,7.52-.1,8.5c0,1.39,2.56,2.3,2.13,3.74-.37,1.25-2.39,2.61-5.8,2.77-1.89.09-4.62-1.13-5.21-2.44-.65-1.47,1.12-2.33,1.12-2.57C325.75,316.57,325.72,314.34,325.72,314.34Z"/><path class="cls-36" d="M325.72,312.81l7.89-5.8s-.1,7.52-.1,8.5c0,1.39,2.56,2.3,2.13,3.74-.37,1.25-2.39,2.61-5.8,2.77-1.89.09-4.62-1.13-5.21-2.44-.65-1.47,1.12-2.33,1.12-2.57C325.75,316.57,325.72,312.81,325.72,312.81Z"/><path class="cls-23" d="M321.5,304.41c-.32-4.21,2.73-8.84,6.94-9.23a7.29,7.29,0,0,1,7.93,6.9,6.24,6.24,0,0,1-2.11,5.31l-1.06.84s0,.88,0,1.74a3.49,3.49,0,0,1-1.79,2.75c-1.47.77-2.94,1.52-3.38,1.76-2.12,1.19-4.07,1.16-4.36,0-.49-1.85-1.79-3.81-1.74-6.52,0-.66.19-1.3.14-1.74C322,305.62,321.56,305.13,321.5,304.41Z"/><path d="M322.08,300.6a7.52,7.52,0,0,0,4.32.81c2.64-.22,2,2.71,2.66,3.09s1.63.51,1.63,1.45v1.39l2.14-1.14.33,3.47.41.15s2.73-2.87,2.94-5.82c.17-2.29.28-8.36-5.86-9.25-5.65-.82-10.23,3.71-10.23,3.71l1.27,3.46Z"/><path class="cls-23" d="M334.46,306.58c0,1.32-.59,2.82-1.32,2.82s-1.33-1.07-1.33-2.39.59-2.38,1.33-2.38S334.46,305.27,334.46,306.58Z"/></g></g></svg>