<svg xmlns="http://www.w3.org/2000/svg" xmlns:xlink="http://www.w3.org/1999/xlink" viewBox="0 0 518.84 471.47"><defs><style>.cls-1{fill:url(#linear-gradient);}.cls-2{fill:url(#linear-gradient-2);}.cls-3{fill:#0075c4;}.cls-4{fill:url(#linear-gradient-3);}.cls-5{fill:#00b2a9;}.cls-6{fill:url(#linear-gradient-4);}.cls-7{fill:#92efec;}.cls-8{fill:#11d3d3;}.cls-9{fill:#64c0f9;}.cls-10{fill:#08a0f4;}.cls-11{fill:url(#linear-gradient-5);}.cls-12{fill:#525252;}.cls-13{fill:#262626;}.cls-14{fill:#6f6f6f;}.cls-15{fill:#161616;}.cls-15,.cls-20{fill-rule:evenodd;}.cls-16{fill:#e6e6e6;}.cls-17{fill:#fff;}.cls-18{fill:url(#linear-gradient-6);}.cls-19{fill:#c1c7cd;}.cls-20{fill:#393939;}.cls-21{fill:#999;}.cls-22{fill:#8d8d8d;}.cls-23{fill:#ccc;}</style><linearGradient id="linear-gradient" x1="175.05" y1="318.96" x2="194.58" y2="349.47" gradientUnits="userSpaceOnUse"><stop offset="0" stop-opacity="0.3"/><stop offset="1" stop-opacity="0"/></linearGradient><linearGradient id="linear-gradient-2" x1="294.23" y1="360.48" x2="313.43" y2="390.49" xlink:href="#linear-gradient"/><linearGradient id="linear-gradient-3" x1="293.84" y1="358.07" x2="250.08" y2="277.31" xlink:href="#linear-gradient"/><linearGradient id="linear-gradient-4" x1="184.65" y1="313.65" x2="120.53" y2="184.17" xlink:href="#linear-gradient"/><linearGradient id="linear-gradient-5" x1="399.66" y1="404.56" x2="421.23" y2="438.56" xlink:href="#linear-gradient"/><linearGradient id="linear-gradient-6" x1="190.14" y1="15.99" x2="189.34" y2="22.05" xlink:href="#linear-gradient"/></defs><g id="Layer_2" data-name="Layer 2"><g id="content"><polygon points="377.48 308.36 377.48 362.85 330.3 390.09 330.3 444.57 377.48 417.33 424.67 390.09 424.67 335.6 424.67 335.6 424.67 281.12 377.48 308.36"/><polygon class="cls-1" points="235.12 281.58 47.19 390.09 94.78 417.1 141.56 390.09 189.04 417.39 235.93 390.09 283.01 417.16 330.2 389.91 376.68 363.08 235.12 281.58 235.12 281.58 235.12 281.58 235.12 281.58 235.12 281.58"/><polygon class="cls-2" points="189.15 417.21 236.74 444.22 283.52 417.21 377.89 471.47 471.86 417.1 330.3 335.6 189.15 417.21"/><polygon class="cls-3" points="283.11 199.39 283.11 253.88 283.12 253.88 283.11 253.88 283.11 253.88 235.93 281.12 235.93 335.6 235.93 335.6 188.74 362.85 188.74 417.33 235.93 390.09 235.93 390.09 283.11 362.85 283.11 362.85 330.3 335.6 330.3 281.12 330.3 234.76 330.3 226.63 330.3 172.15 283.11 199.39"/><polygon class="cls-4" points="283.11 199.39 283.11 253.88 283.12 253.88 283.11 253.88 283.11 253.88 235.93 281.12 235.93 335.6 235.93 335.6 188.74 362.85 188.74 417.33 235.93 390.09 235.93 390.09 283.11 362.85 283.11 362.85 330.3 335.6 330.3 281.12 330.3 234.76 330.3 226.63 330.3 172.15 283.11 199.39"/><polygon class="cls-5" points="188.74 90.42 188.74 144.91 188.74 144.91 141.56 172.15 141.56 226.63 94.37 253.88 94.37 308.36 94.37 308.36 47.19 335.6 47.19 390.09 94.37 362.85 94.37 362.85 141.56 335.6 188.74 308.36 235.93 281.12 235.93 63.18 188.74 90.42"/><polygon class="cls-6" points="188.74 90.42 188.74 144.91 188.74 144.91 141.56 172.15 141.56 226.63 94.37 253.88 94.37 308.36 94.37 308.36 47.19 335.6 47.19 390.09 94.37 362.85 94.37 362.85 141.56 335.6 188.74 308.36 235.93 281.12 235.93 63.18 188.74 90.42"/><polygon class="cls-7" points="141.56 117.66 94.37 144.91 141.56 172.15 141.56 172.15 141.56 172.15 141.56 172.15 141.56 172.15 188.74 144.91 141.56 117.66 141.56 117.66 141.56 117.66 141.56 117.66 141.56 117.66"/><polygon class="cls-8" points="141.56 226.63 141.56 172.15 94.37 144.91 94.37 199.39 141.56 226.63"/><polygon class="cls-7" points="188.74 35.93 141.56 63.18 188.74 90.42 188.74 90.42 188.74 90.42 188.74 90.42 188.74 90.42 235.93 63.18 188.74 35.93 188.74 35.93 188.74 35.93 188.74 35.93 188.74 35.93"/><polygon class="cls-8" points="188.74 144.9 188.74 90.42 141.56 63.18 141.56 117.66 188.74 144.9"/><polygon class="cls-7" points="94.37 199.39 47.19 226.63 94.37 253.88 94.37 253.88 94.37 253.88 94.37 253.88 94.37 253.88 141.56 226.63 94.37 199.39 94.37 199.39 94.37 199.39 94.37 199.39 94.37 199.39"/><polygon class="cls-8" points="94.37 308.36 94.37 253.88 47.19 226.63 47.19 281.12 94.37 308.36"/><polygon class="cls-7" points="47.19 281.12 0 308.36 47.19 335.6 47.19 335.6 47.19 335.6 47.19 335.6 47.19 335.6 94.37 308.36 47.19 281.12 47.19 281.12 47.19 281.12 47.19 281.12 47.19 281.12"/><polygon class="cls-8" points="47.19 390.09 47.19 335.6 0 308.36 0 362.85 47.19 390.09"/><polygon class="cls-9" points="283.11 144.91 235.93 172.15 283.11 199.39 283.11 199.39 283.11 199.39 283.11 199.39 283.11 199.39 330.3 172.15 283.11 144.91 283.11 144.91 283.11 144.91 283.11 144.91 283.11 144.91"/><polygon class="cls-10" points="283.11 253.88 283.11 199.39 235.93 172.15 235.93 226.63 283.11 253.88"/><polygon class="cls-11" points="424.67 390.09 330.7 444.2 378.29 471.2 425.07 444.2 472.06 470.95 518.84 444.08 424.67 390.09 424.67 390.09 424.67 390.09 424.67 390.09 424.67 390.09"/><polygon class="cls-9" points="235.93 226.63 188.74 253.88 235.93 281.12 235.93 281.12 235.93 281.12 235.93 281.12 235.93 281.12 283.11 253.88 235.93 226.63 235.93 226.63 235.93 226.63 235.93 226.63 235.93 226.63"/><polygon class="cls-10" points="235.93 335.6 235.93 281.12 188.74 253.88 188.74 308.36 235.93 335.6"/><polygon class="cls-9" points="188.74 308.36 141.56 335.6 188.74 362.85 188.74 362.85 188.74 362.85 188.74 362.85 188.74 362.85 235.93 335.6 188.74 308.36 188.74 308.36 188.74 308.36 188.74 308.36 188.74 308.36"/><polygon class="cls-10" points="188.74 417.33 188.74 362.85 141.56 335.6 141.56 390.09 188.74 417.33"/><polygon class="cls-12" points="377.48 253.88 330.3 281.12 377.48 308.36 377.48 308.36 377.48 308.36 377.48 308.36 377.48 308.36 424.67 281.12 377.48 253.88 377.48 253.88 377.48 253.88 377.48 253.88 377.48 253.88"/><polygon class="cls-13" points="377.48 362.85 377.48 308.36 330.3 281.12 330.3 335.6 377.48 362.85"/><polygon class="cls-12" points="330.3 335.6 283.11 362.85 330.3 390.09 330.3 390.09 330.3 390.09 330.3 390.09 330.3 390.09 377.48 362.85 330.3 335.6 330.3 335.6 330.3 335.6 330.3 335.6 330.3 335.6"/><polygon class="cls-13" points="330.3 444.57 330.3 390.09 283.11 362.85 283.11 417.33 330.3 444.57"/><path class="cls-14" d="M173.48,111.06c.12-1.42-.5-2.91-2.07-2.16-1.21.57-2.72,1.55-2.3,4.54s-.07,2.81-1.79,5,2.8,4.89,5.84,3.12c1.4-.81,2.21-2.61,1.42-3.77C173.4,116.12,173.4,112.15,173.48,111.06Z"/><path class="cls-14" d="M158,102.62c.11-1.37-.49-2.81-2-2.09-1.17.56-2.63,1.51-2.23,4.4s-.07,2.72-1.73,4.87,2.71,4.73,5.65,3c1.36-.79,2.15-2.53,1.38-3.65C157.92,107.52,157.91,103.68,158,102.62Z"/><path class="cls-15" d="M173.85,116.16a12.83,12.83,0,0,1,1.08,2.09,6,6,0,0,1,.32,1.75,8.17,8.17,0,0,1-.84,2.89,12.28,12.28,0,0,1-2.68,1.36L171,124a9.07,9.07,0,0,0-2.94,2.26c-1.23,1.48-2.51,2.24-6,2.63-3.32.36-3.79-2.1-2.06-3.13a22.79,22.79,0,0,0,6.87-7.14c1.56-2.67,2.41-2.69,3.66-1.6C172,118.31,173,117.92,173.85,116.16Z"/><path class="cls-15" d="M158.35,107.57a12.66,12.66,0,0,1,1.05,2,5.9,5.9,0,0,1,.31,1.69,7.82,7.82,0,0,1-.82,2.8,11.22,11.22,0,0,1-2.59,1.31l-.7-.25a8.67,8.67,0,0,0-2.84,2.19c-1.2,1.43-2.43,2.16-5.84,2.54-3.21.35-3.69-2.05-2-3.09a20.87,20.87,0,0,0,6.7-6.86c1.51-2.58,2.33-2.6,3.54-1.55C156.59,109.65,157.54,109.27,158.35,107.57Z"/><path class="cls-14" d="M177.27,43.32c-1.54,4.72-7,11.49-7.48,12.28a2,2,0,0,1-1.67,1.27c-.67.11-1.9-.21-1.42-1.32,2.11-5,2.5-8,6.19-13.11.45-.61,2.43-3,4.07-2.36C178.34,40.66,177.62,42.23,177.27,43.32Z"/><path d="M153.05,67.65a110.45,110.45,0,0,1,11.4-8.2c2.4-1.41,6.56-4,10.15-5.12.84-.25,1.33-1.95,1.71-3l21.42,6.19a43,43,0,0,1,.33,10.68c-.1,2.41-1.34,4.2-3.59,5.8a100.72,100.72,0,0,1-20.29,10.1,64.87,64.87,0,0,1,1.44,9.43c0,3.09-.06,18.08,0,22.36a5.87,5.87,0,0,1-4.07,1.4c-1.51,0-4-1.66-4.07-2.12-.83-6.7-1.94-28.12-2.49-30.68-.86-4.08.72-5.7,1.82-6.87A89.4,89.4,0,0,1,174.08,71c-2.3.78-10.9,3.5-15.18,4.37a67.86,67.86,0,0,1,1.37,9.28c0,3.09.17,18.58-.22,22.57,0,.39-2.19,1.32-4,1.27-1.63,0-3.59-.86-3.69-1.56-1-6.68-2.18-28.76-2.7-31.32C149,72.14,149.37,70.64,153.05,67.65Z"/><path class="cls-14" d="M173.51,43c.76-6.76-.33-4.17,1-15.42.45-3.95,2-6.71,3.6-7.71s2.64-.45,2.74,1.4c.15,3-1,19.75-4.47,22.77C174.62,45.55,173.39,44.1,173.51,43Z"/><path class="cls-10" d="M173.91,32.53s.29-5.54.65-7.26,1.78-5.58,4.37-6.24c1-.24,6.47-.12,7.78-.21a7.24,7.24,0,0,1,3.93.75,97,97,0,0,1,11.05,7.22c3.21,2.38-2.95,18.92-3.45,21.67s-1.3,7-.52,9.2c.51,1.46-1.44,3.55-4.11,4.17-5.06,1.19-11.81-1.25-14.73-4a10.22,10.22,0,0,1-3.1-5c.58-2.94,1.14-4.67,1.39-6.46a30,30,0,0,0,.62-5.57c-.1-1.29,0-4.15,0-4.15a7.69,7.69,0,0,1-.56-2.28A8.93,8.93,0,0,1,173.91,32.53Z"/><path class="cls-3" d="M197.73,57.55c.19.48.2,2-1.79,3.27-2.64,1.69-5.34,1.44-8.1,1.06-1.57-.22.81-4.07,1.39-9.79.45-4.4,1.64-7.87,3.48-10.13,2.25-2.78,4.73-10,4.73-10l-1,7.24,3.82,2s-1.84,6.24-2,7.19C198,49.9,196.89,55.34,197.73,57.55Z"/><path class="cls-16" d="M148.68,66.36h0a.42.42,0,0,1,.23-.36l13.46-8.13a1.57,1.57,0,0,1,1.4,0L183.34,68.7a.57.57,0,0,1,.35.47h0l0,.94h0a.46.46,0,0,1-.23.34L170,78.57a1.54,1.54,0,0,1-1.4,0L149.05,67.75a.56.56,0,0,1-.35-.46h0Z"/><path class="cls-17" d="M183.34,68.7,163.77,57.91a1.57,1.57,0,0,0-1.4,0L148.91,66c-.35.22-.3.58.12.81L168.6,77.61a1.57,1.57,0,0,0,1.4,0l13.46-8.13C183.81,69.3,183.76,68.93,183.34,68.7Z"/><path class="cls-14" d="M185,18.79l7.55-7s-.1,7.18-.1,8.12c0,1.33,2.45,2.19,2,3.57-.36,1.2-2.29,2.49-5.55,2.65-1.8.08-4.42-1.08-5-2.34S185,21.57,185,21.34C185,20.93,185,18.79,185,18.79Z"/><path class="cls-18" d="M185,17.33l7.55-5.53s-.1,7.18-.1,8.12c0,1.33,2.45,2.19,2,3.57-.36,1.2-2.29,2.49-5.55,2.65-1.8.08-4.42-1.08-5-2.34S185,21.57,185,21.34C185,20.93,185,17.33,185,17.33Z"/><path class="cls-14" d="M181,9.3c-.31-4,2.61-8.44,6.63-8.82a7,7,0,0,1,7.59,6.6,6,6,0,0,1-2,5.07l-1,.81s0,.84,0,1.66a3.34,3.34,0,0,1-1.72,2.63c-1.4.74-2.81,1.45-3.23,1.68-2,1.13-3.88,1.11-4.16,0-.47-1.77-1.71-3.64-1.66-6.23,0-.63.18-1.24.13-1.66C181.41,10.46,181,10,181,9.3Z"/><path d="M181.53,5.66a7.22,7.22,0,0,0,4.14.78c2.52-.21,1.92,2.59,2.54,3s1.63.36,1.63,1.26V12l2-1,.32,3.32.39.15a12.88,12.88,0,0,0,2.7-5.12c.51-2.39.39-8.52-5.49-9.28s-8.49,4.83-8.49,4.83l-.08,2Z"/><path class="cls-14" d="M193.41,11.05c0,1.26-.57,2.69-1.27,2.69s-1.27-1-1.27-2.27.57-2.28,1.27-2.28S193.41,9.79,193.41,11.05Z"/><path class="cls-14" d="M195.36,53.94c.41-3.44-.2-4.35,0-8.23.16-3.15,1.48-9.3,2.09-13.79a7.93,7.93,0,0,1,2.85-4.68c1.62-1.12,2.67,1.87,3,3.51.44,2-1,13.94-2.61,21.23a7.2,7.2,0,0,1-1.7,3.67C197.87,56.67,195.23,55,195.36,53.94Z"/><path class="cls-14" d="M199,56c-3.64,4.36-14.94,11.13-15.81,11.59s-1.27-.33-1.34-.89a3.07,3.07,0,0,1,.92-2.62c1.93-2.27,10.58-12.22,16-15.17.71-.38,1.66-.35,1.93,1.77S199.47,55.42,199,56Z"/><path class="cls-14" d="M182.84,63.93c.41-.2,1.21-.61,1.53.47a3.59,3.59,0,0,1-.57,2.65,8.94,8.94,0,0,1-1.89,2,6.15,6.15,0,0,1-2.8,1.18,24.48,24.48,0,0,0-1.89,3c-.35.69-.94.42-.84.1s.67-2.31.85-3a.08.08,0,0,0-.12-.08,8.44,8.44,0,0,0-1,.79,13,13,0,0,0-.95,1.68c-.35.78-1.05.61-1,.39a14.24,14.24,0,0,1,.57-2c.18-.31.65-1.27.65-1.27s0-.07,0,0a9.54,9.54,0,0,0-1.12.9,2.25,2.25,0,0,0-.75,1c-.28.73-1,.4-.92.18a8.11,8.11,0,0,1,.61-1.5,11.78,11.78,0,0,1,.84-1s0-.09-.06-.07-.92.47-1.25.61c-.88.37-1.37-.07-1.14-.25a37.78,37.78,0,0,1,4.67-3.48C177.29,65.65,181.45,64.61,182.84,63.93Z"/><path class="cls-10" d="M203,41.29s-.5,1.81-3.82,1.19c-3.62-.67-3.32-1.89-3.32-1.89a91.27,91.27,0,0,1,1.5-9.43c.59-2.44,1.86-4.56,3.3-4.66,1.63-.13,3.37,3,3.32,5.19C203.91,33.56,203.44,37.69,203,41.29Z"/><path class="cls-14" d="M167.16,54.74c-1.46,2.74-4.23,5.63-3.81,7.46,0,0,.7,1.54,1.15,2.47A3.79,3.79,0,0,0,167,66.31c.24.07,1.62,1.5,2.06,1.4.62-.13.83-.54-.11-2.54s-.39-2.8-.39-2.8c.15,1.05.42,2.74,1.14,2.47.47-.17.22-1.9.25-3.29a5.57,5.57,0,0,0-.71-2.56c-.31-.68-.63-.77-.38-1.55a18.16,18.16,0,0,1,.92-1.84C171.43,52.62,168.69,51.86,167.16,54.74Z"/><path class="cls-16" d="M166,60.1a2.49,2.49,0,0,0-.78-1.2L145.54,47.74h0c-.29-.16-.58.28-.54.61L148.47,67a1,1,0,0,0,.52.76l19.72,10.94a.38.38,0,0,0,.41,0,.39.39,0,0,0,.15-.34v0Z"/><path d="M336.91,315v3.69a13.86,13.86,0,0,1-2.87-.37,14.17,14.17,0,0,1-3.33-1.49l5.77-5A9.46,9.46,0,0,1,336.91,315Z"/><path class="cls-19" d="M343.45,410.9c-.11-1.4.49-2.86,2-2.13,1.19.57,2.67,1.53,2.26,4.47s.07,2.77,1.76,4.95-2.75,4.81-5.74,3.07c-1.38-.81-2.18-2.57-1.39-3.71C343.53,415.88,343.54,412,343.45,410.9Z"/><path class="cls-20" d="M343.09,415.92A13.9,13.9,0,0,0,342,418a6.18,6.18,0,0,0-.31,1.72,8.07,8.07,0,0,0,.83,2.85,12.23,12.23,0,0,0,2.63,1.33l.71-.26a9.08,9.08,0,0,1,2.9,2.22c1.21,1.46,2.46,2.2,5.92,2.58,3.26.36,2.49-1.48,1.08-2.88a40.47,40.47,0,0,1-5.82-7.22c-1.53-2.62-2.37-2.64-3.59-1.57C344.88,418,343.92,417.65,343.09,415.92Z"/><path class="cls-16" d="M339.11,344.12c1.51,4.64,6.58,10.51,7,11.29s1.25,1.91,2,2,1.46-.16,1.13-1.3c-1.31-4.45-2.19-7.88-5.82-12.89-.44-.61-2.39-3-4-2.33C338.06,341.5,338.77,343.05,339.11,344.12Z"/><path class="cls-19" d="M358.68,402.6c-.11-1.35.48-2.77,2-2.06,1.16.55,2.6,1.49,2.2,4.33s.07,2.68,1.7,4.79-2.66,4.66-5.56,3c-1.34-.78-2.11-2.49-1.35-3.59C358.76,407.42,358.76,403.64,358.68,402.6Z"/><path class="cls-21" d="M363.54,368.21a108.1,108.1,0,0,0-11.2-8.07c-2.36-1.39-6.45-4-10-5-.83-.25-1.3-1.92-1.67-2.93l-21.08,6.09a47.06,47.06,0,0,0-.87,10.59A7.5,7.5,0,0,0,322,375c5.26,3.73,16.9,8.28,20.78,9.45a64.4,64.4,0,0,0-1.41,9.28c-.05,3,1.22,16.36,1.67,20.27,0,.19.26,1.2,2.41,1.15a2.83,2.83,0,0,0,2.6-1.47c.82-6.58,3.24-26.33,3.77-28.84.85-4-.7-5.6-1.79-6.76a86.31,86.31,0,0,0-7.15-6.54c2.27.76,10.73,3.44,14.94,4.29a65.76,65.76,0,0,0-1.35,9.12c-.05,3,1.32,16.45,1.7,20.37,0,.39.38,1.29,2.16,1.24,1.6,0,2.8-.87,2.9-1.56,1-6.57,3.15-26.42,3.66-28.94C367.56,372.63,367.16,371.15,363.54,368.21Z"/><path class="cls-20" d="M358.33,407.47a12.19,12.19,0,0,0-1,2,5.83,5.83,0,0,0-.3,1.67,7.7,7.7,0,0,0,.8,2.75,11.08,11.08,0,0,0,2.55,1.29l.69-.25a8.86,8.86,0,0,1,2.8,2.15c1.17,1.41,2.38,2.13,5.73,2.5,3.16.35,2.41-1.43,1.05-2.79a39.16,39.16,0,0,1-5.64-7c-1.48-2.54-2.29-2.56-3.48-1.52C360.06,409.51,359.13,409.14,358.33,407.47Z"/><path class="cls-16" d="M342.81,343.8c-.75-6.64-.42-11.48-1-15.16-.56-3.87-2-6.6-3.54-7.58s-2.6-.45-2.69,1.38c-.15,3,1,19.42,4.39,22.39C341.72,346.32,342.93,344.89,342.81,343.8Z"/><path class="cls-10" d="M342.17,332.3s-.29-3.31-.64-5-.89-5.81-3.44-6.46c-.94-.24-6.35-.69-7.64-.78a7.28,7.28,0,0,0-3.87.74,62.84,62.84,0,0,0-8.85,5.93c-3.15,2.35,5.21,27.24,5.21,23,0,2-2.56,6.39-3.32,8.55-.51,1.44,1.41,3.49,4,4.11,5,1.17,11.61-1.23,14.48-3.91a10,10,0,0,0,3.05-4.88c-.56-2.89-2-4.95-2.26-6.71a18.74,18.74,0,0,1,.28-5.12c.1-1.27,0-4.08,0-4.08,1.4-1.41,2.29-3.2,1.65-5h0S341.85,332.67,342.17,332.3Z"/><path class="cls-3" d="M319.6,358.27c-.18.48-.3,1.79,1.66,3,2.6,1.67,6.07,1.37,8.07,1,1.54-.29-.8-3.78-1.37-9.41-.44-4.32,1.05-10.34-.87-11.63-2.92-2-4.82-8.52-4.82-8.52l-1,7.23-.37,4.35a39.06,39.06,0,0,1,1.91,5.33C322.9,351.08,320.43,356.11,319.6,358.27Z"/><path class="cls-12" d="M367.85,366.94h0a.41.41,0,0,0-.22-.34l-13.24-8a1.56,1.56,0,0,0-1.38,0l-19.24,10.61c-.24.13-.35.3-.34.46h0l0,.92h0a.4.4,0,0,0,.22.34l13.24,8a1.53,1.53,0,0,0,1.38,0l19.24-10.61c.24-.13.35-.3.34-.46h0Z"/><path class="cls-22" d="M333.76,369.24,353,358.63a1.56,1.56,0,0,1,1.38,0l13.24,8c.34.21.29.56-.12.79L348.26,378a1.53,1.53,0,0,1-1.38,0l-13.24-8C333.29,369.83,333.35,369.47,333.76,369.24Z"/><path class="cls-19" d="M332.79,319.47l-6.73-4.42s.09,4.59.09,5.42c0,1.19-2.18,2-1.82,3.18s2,2.23,4.95,2.37c1.61.07,3.93-1,4.43-2.08s-.95-2-.95-2.2C332.76,321.37,332.79,319.47,332.79,319.47Z"/><path class="cls-16" d="M332.79,319.47l-6.73-4.42s.09,4.59.09,5.42c0,1.19-2.18,2-1.82,3.18s2,2.23,4.95,2.37c1.61.07,3.93-1,4.43-2.08s-.95-2-.95-2.2C332.76,321.37,332.79,319.47,332.79,319.47Z"/><path class="cls-16" d="M337.05,309.55c-.06-4-3.33-8-7.3-8a7.19,7.19,0,0,0-7.18,7.18,9.41,9.41,0,0,0,1.92,5.94,4.15,4.15,0,0,0,2.13,1.48s.42,1.68,1.32,2l3.92,1.42c1.91.64,3.28.64,3.46-.44.3-1.78,2.05-3.11,1.67-6.16-.07-.62-.29-1.2-.28-1.62C336.73,310.73,337.06,310.23,337.05,309.55Z"/><path class="cls-16" d="M322.92,354.65c1.88-6.14,0-13.41-1.36-23.26a6.35,6.35,0,0,0-2.43-4.2c-1.59-1.11-2.62,1.83-3,3.44-.43,2,1.22,14.07,2.57,20.89a6.85,6.85,0,0,0,1.67,3.6C321.51,356.13,322.61,355.67,322.92,354.65Z"/><path class="cls-16" d="M320.38,355.43c3.58,4.29,14.69,10.95,15.55,11.4s1.25-.32,1.31-.88a3,3,0,0,0-.89-2.58c-1.9-2.23-10.41-12-15.78-14.91-.7-.38-1.64-.34-1.9,1.74S319.94,354.9,320.38,355.43Z"/><path class="cls-16" d="M336.14,363.25c-.37-.18-1.08-.54-1.36.42a3.15,3.15,0,0,0,.5,2.36,7.9,7.9,0,0,0,1.68,1.8,5.43,5.43,0,0,0,2.5,1.05,21.8,21.8,0,0,1,1.68,2.66c.32.6.84.36.75.08s-.6-2.06-.76-2.66a.07.07,0,0,1,.11-.07,8.05,8.05,0,0,1,.86.7,11.84,11.84,0,0,1,.85,1.5c.31.7.93.55.89.35a14.8,14.8,0,0,0-.51-1.82c-.17-.27-.58-1.13-.58-1.13s0-.06.05,0a7.87,7.87,0,0,1,1,.8,2,2,0,0,1,.67.89c.25.65.9.35.82.16a8.14,8.14,0,0,0-.54-1.34c-.17-.25-.76-.89-.76-.89A0,0,0,0,1,344,368s.82.42,1.12.54c.78.33,1.22-.05,1-.21a32.18,32.18,0,0,0-4.16-3.11C341.08,364.79,337.38,363.85,336.14,363.25Z"/><path class="cls-10" d="M316.49,339.76s.13,1.57,3.4,1c3.56-.66,3.26-1.86,3.26-1.86a56,56,0,0,0-1.27-7.31c-.58-2.4-2.24-4.6-3.62-4.91-1.18-.26-2.32,2.73-2.26,4.93A73.68,73.68,0,0,0,316.49,339.76Z"/><path class="cls-16" d="M348.87,355.42c1.27,2.39,3.69,4.91,3.32,6.51,0,0-.61,1.33-1,2.14a3.3,3.3,0,0,1-2.19,1.44c-.21.05-1.41,1.3-1.79,1.22-.54-.12-.72-.48.09-2.22s.34-2.44.34-2.44c-.12.91-.37,2.39-1,2.15-.41-.15-.19-1.65-.22-2.86a4.8,4.8,0,0,1,.62-2.23c.27-.59.55-.67.33-1.36a14.87,14.87,0,0,0-.8-1.59C345.15,353.57,347.54,352.91,348.87,355.42Z"/><path class="cls-23" d="M350.77,360.79a2.44,2.44,0,0,1,.77-1.19l19.39-11h0c.29-.16.58.27.53.6l-3.41,18.31a1,1,0,0,1-.51.75l-19.39,10.76a.38.38,0,0,1-.41,0,.39.39,0,0,1-.15-.33.11.11,0,0,1,0-.05Z"/><path d="M337.45,308.34s-.31.79-2.46,1.35a10.61,10.61,0,0,1-5-.34,2.93,2.93,0,0,0-1.65,2.7c-.1,2.43.28,8.86.18,8.8a21.34,21.34,0,0,1-5.38-.87c-2.15-.81-2.15-2.45-2.15-4.27s.43-8.43,1.56-10.4,2.84-4.09,7.53-4.09a8.3,8.3,0,0,1,6,2.32A6.93,6.93,0,0,1,337.45,308.34Z"/></g></g></svg>