<svg xmlns="http://www.w3.org/2000/svg" xmlns:xlink="http://www.w3.org/1999/xlink" viewBox="0 0 425.31 354.7"><defs><style>.cls-1{fill:#11d3d3;}.cls-2{fill:#00b2a9;}.cls-3{fill:#92efec;}.cls-10,.cls-11,.cls-12,.cls-4,.cls-5,.cls-6,.cls-7,.cls-8,.cls-9{fill:none;}.cls-4{stroke:#64c0f9;}.cls-10,.cls-11,.cls-4,.cls-5,.cls-6,.cls-7,.cls-8,.cls-9{stroke-linejoin:bevel;}.cls-12,.cls-5{stroke:#000;}.cls-6{stroke:url(#linear-gradient);}.cls-7{stroke:url(#linear-gradient-2);}.cls-8{stroke:url(#linear-gradient-3);}.cls-9{stroke:url(#linear-gradient-4);}.cls-10{stroke:url(#linear-gradient-5);}.cls-11{stroke:#08a0f4;}.cls-12{stroke-linejoin:round;}.cls-13{fill:#c1c7cd;}.cls-14{fill:#393939;fill-rule:evenodd;}.cls-15{fill:#08a0f4;}.cls-16{fill:#0075c4;}.cls-17{fill:#525252;}.cls-18{fill:#8d8d8d;}.cls-19{fill:url(#linear-gradient-6);}</style><linearGradient id="linear-gradient" x1="47.44" y1="340.56" x2="95.12" y2="340.56" gradientUnits="userSpaceOnUse"><stop offset="0" stop-opacity="0.3"/><stop offset="1" stop-opacity="0"/></linearGradient><linearGradient id="linear-gradient-2" x1="94.62" y1="313.5" x2="142.3" y2="313.5" xlink:href="#linear-gradient"/><linearGradient id="linear-gradient-3" x1="141.7" y1="285.98" x2="189.37" y2="285.98" xlink:href="#linear-gradient"/><linearGradient id="linear-gradient-4" x1="236.11" y1="340.56" x2="283.79" y2="340.56" xlink:href="#linear-gradient"/><linearGradient id="linear-gradient-5" x1="377.63" y1="258.74" x2="425.31" y2="258.74" xlink:href="#linear-gradient"/><linearGradient id="linear-gradient-6" x1="131.65" y1="66.26" x2="131.04" y2="70.92" gradientTransform="matrix(-1, 0, 0, 1, 321.13, 0)" xlink:href="#linear-gradient"/></defs><g id="Layer_2" data-name="Layer 2"><g id="content"><polygon class="cls-1" points="283.54 81.71 283.54 136.18 330.71 163.42 330.71 108.94 283.54 81.71"/><polygon class="cls-2" points="189.19 136.18 189.19 190.65 283.54 136.18 283.54 81.71 189.19 136.18"/><polygon class="cls-3" points="330.71 54.47 283.54 27.24 236.36 0 189.19 27.24 236.36 54.47 189.19 81.71 142.01 108.94 189.19 136.18 236.36 108.94 283.54 81.71 330.71 108.94 377.88 81.71 330.71 54.47"/><line class="cls-4" x1="189.19" y1="190.65" x2="189.19" y2="245.13"/><line class="cls-4" x1="236.36" y1="163.42" x2="236.36" y2="217.89"/><line class="cls-4" x1="142.01" y1="54.47" x2="142.01" y2="217.89"/><line class="cls-4" x1="283.54" y1="190.65" x2="330.71" y2="217.89"/><polygon class="cls-5" points="283.54 81.71 236.36 108.94 283.54 136.18 330.71 108.94 283.54 81.71"/><polyline class="cls-4" points="236.36 163.42 283.54 136.18 330.71 163.42 283.54 190.65"/><polyline class="cls-4" points="0.52 299.61 47.7 272.37 94.87 299.61 94.55 299.79"/><polyline class="cls-6" points="47.69 326.85 94.86 354.08 94.55 354.27"/><polyline class="cls-7" points="94.87 299.79 142.04 327.03 141.72 327.21"/><polyline class="cls-8" points="141.95 272.27 189.12 299.51 188.8 299.69"/><polyline class="cls-9" points="236.36 326.85 283.54 354.08 283.21 354.27"/><polyline class="cls-10" points="377.88 245.03 425.06 272.27 424.74 272.45"/><polyline class="cls-4" points="283.54 245.13 236.36 217.89 189.19 245.13"/><line class="cls-4" x1="189.19" y1="299.6" x2="330.71" y2="217.89"/><line class="cls-4" x1="94.84" y1="245.13" x2="189.19" y2="190.65"/><line class="cls-4" x1="142.01" y1="163.42" x2="189.19" y2="136.18"/><line class="cls-4" x1="377.88" y1="245.13" x2="330.71" y2="217.89"/><polygon class="cls-5" points="47.69 217.88 0.5 245.12 47.69 272.36 47.69 272.36 47.69 272.36 47.69 272.36 47.69 272.36 94.87 245.12 47.69 217.88 47.69 217.88 47.69 217.88 47.69 217.88 47.69 217.88"/><polygon class="cls-5" points="47.69 326.85 47.69 272.36 0.5 245.12 0.5 299.61 47.69 326.85"/><polygon class="cls-5" points="94.87 299.61 94.87 245.12 47.69 272.36 47.69 326.85 94.87 299.61"/><polygon class="cls-11" points="236.36 217.89 283.54 190.65 236.36 163.42 236.36 163.42 236.36 163.42 236.36 163.42 236.36 163.42 189.19 190.65 236.36 217.89 236.36 217.89 236.36 217.89 236.36 217.89 236.36 217.89"/><polygon class="cls-12" points="142.01 54.47 94.84 81.71 142.01 108.94 189.19 81.71 142.01 54.47"/><polygon class="cls-5" points="377.88 190.65 330.71 163.42 330.71 217.89 377.88 190.65"/><polygon class="cls-12" points="189.19 245.13 189.19 299.6 236.36 326.83 236.36 272.36 189.19 245.13"/><polygon class="cls-1" points="189.19 136.18 142.01 108.94 142.01 163.42 142.01 163.42 142.01 163.42 142.01 163.42 142.01 163.42 189.19 190.65 189.19 136.18 189.19 136.18"/><polygon class="cls-1" points="189.19 27.24 189.19 81.71 236.36 54.47 189.19 27.24"/><polygon class="cls-12" points="142.01 217.89 142.01 272.36 189.19 245.13 142.01 217.89"/><polygon class="cls-5" points="236.36 217.89 236.36 272.36 283.54 245.13 283.54 190.65 236.36 217.89"/><polygon class="cls-2" points="330.71 108.94 330.71 163.42 377.88 136.18 377.88 81.71 330.71 108.94"/><polygon class="cls-12" points="189.19 190.65 142.01 163.42 142.01 108.94 94.84 81.71 94.84 136.18 94.84 190.65 94.84 245.13 142.01 272.36 142.01 217.89 189.19 245.13 236.36 272.36 236.36 217.89 189.19 190.65"/><polygon class="cls-12" points="330.71 217.89 330.71 163.42 330.71 108.94 283.54 136.18 283.54 190.65 283.54 245.13 236.36 272.36 236.36 326.83 283.54 299.6 330.71 272.36 377.88 245.13 377.88 190.65 330.71 217.89"/><polygon class="cls-12" points="236.36 108.94 236.36 163.42 283.54 190.65 283.54 136.18 236.36 108.94"/><path d="M198,63v3.68a11.31,11.31,0,0,1-6.2-1.85l5.76-5A9.2,9.2,0,0,1,198,63Z"/><path class="cls-13" d="M204.54,158.94c-.11-1.4.49-2.86,2-2.12,1.2.57,2.68,1.53,2.27,4.47s.07,2.76,1.76,4.94-2.75,4.81-5.74,3.07c-1.39-.8-2.18-2.57-1.4-3.7C204.62,163.92,204.62,160,204.54,158.94Z"/><path class="cls-14" d="M204.18,164a13,13,0,0,0-1.07,2,6.25,6.25,0,0,0-.31,1.72,8,8,0,0,0,.83,2.85,11.17,11.17,0,0,0,2.63,1.33l.71-.26a9,9,0,0,1,2.89,2.22c1.21,1.46,2.47,2.2,5.93,2.59,3.26.36,2.48-1.48,1.08-2.88a40.85,40.85,0,0,1-5.82-7.22c-1.53-2.63-2.37-2.65-3.6-1.58C206,166.08,205,165.69,204.18,164Z"/><path class="cls-13" d="M200.2,92.16c1.51,4.64,6.58,10.51,7,11.29s1.24,1.92,2,2,1.46-.16,1.12-1.29c-1.3-4.45-2.18-7.88-5.81-12.89-.45-.61-2.39-3-4-2.33C199.14,89.55,199.85,91.09,200.2,92.16Z"/><path class="cls-13" d="M219.77,150.65c-.11-1.36.48-2.77,2-2.06,1.15.55,2.59,1.48,2.19,4.33s.07,2.67,1.7,4.78-2.66,4.66-5.55,3c-1.34-.78-2.11-2.49-1.35-3.59C219.85,155.47,219.85,151.69,219.77,150.65Z"/><path d="M224.63,116.25a107.85,107.85,0,0,0-11.21-8.06c-2.36-1.39-6.45-4-10-5-.83-.24-1.3-1.92-1.68-2.92l-21.07,6.09a46.52,46.52,0,0,0-.88,10.59,7.54,7.54,0,0,0,3.26,6.1c5.26,3.73,16.9,8.27,20.78,9.45a64.24,64.24,0,0,0-1.42,9.27c0,3,1.22,16.36,1.67,20.28,0,.19.26,1.2,2.41,1.14a2.82,2.82,0,0,0,2.6-1.46c.82-6.59,3.24-26.33,3.78-28.85.85-4-.7-5.6-1.79-6.76a90,90,0,0,0-7.15-6.54c2.27.76,10.72,3.44,14.93,4.29a67.45,67.45,0,0,0-1.35,9.13c0,3,1.33,16.44,1.71,20.37,0,.38.38,1.29,2.15,1.24,1.61,0,2.81-.88,2.91-1.57,1-6.56,3.15-26.41,3.66-28.93C228.64,120.67,228.25,119.19,224.63,116.25Z"/><path class="cls-14" d="M219.42,155.51a12.68,12.68,0,0,0-1,2,5.56,5.56,0,0,0-.3,1.67,7.77,7.77,0,0,0,.8,2.76,11.68,11.68,0,0,0,2.54,1.29l.69-.26a8.68,8.68,0,0,1,2.8,2.16c1.17,1.41,2.39,2.12,5.74,2.49,3.16.35,2.41-1.42,1.05-2.78a39.09,39.09,0,0,1-5.64-7c-1.48-2.54-2.29-2.56-3.48-1.53C221.15,157.56,220.22,157.18,219.42,155.51Z"/><path class="cls-13" d="M203.9,91.85c-.75-6.64-.43-11.48-1-15.16-.57-3.87-2-6.6-3.55-7.59s-2.6-.44-2.69,1.38c-.14,3,1,19.43,4.4,22.39C202.81,94.36,204,92.93,203.9,91.85Z"/><path class="cls-15" d="M203.26,80.35s-.29-3.32-.64-5-.9-5.81-3.44-6.46c-.94-.23-6.36-.68-7.65-.78a7.17,7.17,0,0,0-3.86.75,61.4,61.4,0,0,0-8.85,5.93c-3.15,2.34,5.2,27.24,5.2,23,0,2-2.55,6.39-3.32,8.56-.5,1.44,1.42,3.48,4.05,4.1,5,1.17,11.61-1.23,14.48-3.91a10,10,0,0,0,3.05-4.88c-.57-2.89-2-5-2.27-6.7a18.63,18.63,0,0,1,.29-5.12c.1-1.27,0-4.09,0-4.09,1.4-1.4,2.28-3.2,1.65-5h0S202.94,80.72,203.26,80.35Z"/><path class="cls-16" d="M180.69,106.32c-.18.47-.3,1.79,1.66,3,2.6,1.66,6.07,1.37,8.07,1,1.53-.28-.8-3.78-1.37-9.4-.44-4.33,1-10.35-.87-11.64-2.92-2-4.83-8.52-4.83-8.52l-1,7.23L182,92.38a38.89,38.89,0,0,1,1.92,5.33C184,99.13,181.52,104.15,180.69,106.32Z"/><path class="cls-17" d="M228.93,115h0a.41.41,0,0,0-.23-.35l-13.23-8a1.53,1.53,0,0,0-1.38,0l-19.25,10.61a.57.57,0,0,0-.34.46h0l0,.92h0a.39.39,0,0,0,.22.33L208,127a1.54,1.54,0,0,0,1.37,0l19.25-10.61a.55.55,0,0,0,.34-.47h0Z"/><path class="cls-18" d="M194.84,117.29l19.25-10.61a1.53,1.53,0,0,1,1.38,0l13.23,8c.35.21.3.57-.11.8l-19.25,10.61a1.56,1.56,0,0,1-1.38,0l-13.23-8C194.38,117.87,194.43,117.51,194.84,117.29Z"/><path class="cls-13" d="M193.88,67.51l-6.73-4.41s.09,4.58.09,5.42c0,1.18-2.19,2-1.82,3.18.32,1.07,2,2.22,4.94,2.36,1.61.08,3.94-1,4.44-2.08s-1-2-1-2.19C193.85,69.42,193.88,67.51,193.88,67.51Z"/><path class="cls-19" d="M193.88,67.51l-6.73-4.41s.09,4.58.09,5.42c0,1.18-2.19,2-1.82,3.18.32,1.07,2,2.22,4.94,2.36,1.61.08,3.94-1,4.44-2.08s-1-2-1-2.19C193.85,69.42,193.88,67.51,193.88,67.51Z"/><path class="cls-13" d="M198.13,57.6c-.06-4-3.32-8-7.29-8a7.18,7.18,0,0,0-7.18,7.19,9.36,9.36,0,0,0,1.92,5.93,4,4,0,0,0,2.12,1.48s.43,1.68,1.33,2c1.46.54,3.46,1.27,3.91,1.42,1.92.65,3.29.64,3.47-.43.3-1.78,2.05-3.12,1.67-6.17a16.22,16.22,0,0,1-.28-1.61C197.82,58.77,198.14,58.28,198.13,57.6Z"/><path class="cls-13" d="M184,102.7c1.88-6.15,0-13.41-1.36-23.26a6.41,6.41,0,0,0-2.43-4.21c-1.59-1.1-2.62,1.84-3,3.45-.43,2,1.21,14.06,2.57,20.88a6.77,6.77,0,0,0,1.67,3.61C182.6,104.18,183.7,103.71,184,102.7Z"/><path class="cls-13" d="M181.47,103.48c3.58,4.28,14.69,10.94,15.54,11.4s1.25-.33,1.32-.89a3,3,0,0,0-.9-2.57c-1.9-2.23-10.41-12-15.77-14.92-.7-.38-1.64-.34-1.9,1.75S181,103,181.47,103.48Z"/><path class="cls-13" d="M197.22,111.29c-.36-.17-1.07-.53-1.36.43a3.16,3.16,0,0,0,.51,2.36,7.66,7.66,0,0,0,1.68,1.79,5.52,5.52,0,0,0,2.5,1.06,22.65,22.65,0,0,1,1.68,2.65c.32.61.84.37.75.08s-.6-2-.76-2.65a.07.07,0,0,1,.11-.07,8.05,8.05,0,0,1,.86.7,11.84,11.84,0,0,1,.85,1.5c.31.69.93.55.88.35a12.44,12.44,0,0,0-.51-1.83c-.16-.27-.58-1.12-.58-1.12s0-.06,0,0a8.17,8.17,0,0,1,1,.81,1.92,1.92,0,0,1,.67.89c.25.65.89.35.82.15a7.67,7.67,0,0,0-.55-1.34,11.24,11.24,0,0,0-.75-.89s0-.09.06-.06.82.41,1.11.54c.78.33,1.22-.06,1-.22a32.93,32.93,0,0,0-4.17-3.1C202.17,112.83,198.46,111.9,197.22,111.29Z"/><path class="cls-15" d="M177.58,87.8s.13,1.57,3.39,1c3.57-.66,3.27-1.87,3.27-1.87A60.29,60.29,0,0,0,183,79.59c-.59-2.4-2.24-4.6-3.63-4.91-1.18-.26-2.31,2.73-2.26,4.93A74.21,74.21,0,0,0,177.58,87.8Z"/><path class="cls-13" d="M210,103.47c1.27,2.38,3.68,4.9,3.32,6.5,0,0-.61,1.34-1,2.15a3.32,3.32,0,0,1-2.19,1.43c-.21.06-1.41,1.3-1.79,1.22-.54-.12-.72-.47.09-2.21s.34-2.45.34-2.45c-.13.92-.37,2.39-1,2.16-.41-.15-.19-1.66-.22-2.87a4.8,4.8,0,0,1,.62-2.23c.27-.59.55-.67.33-1.35a14.66,14.66,0,0,0-.8-1.6C206.24,101.62,208.63,101,210,103.47Z"/><path class="cls-17" d="M211.86,108.83a2.42,2.42,0,0,1,.77-1.18l19.38-11h0c.29-.16.57.28.53.61l-3.41,18.3a1,1,0,0,1-.51.76l-19.4,10.75a.36.36,0,0,1-.4,0,.39.39,0,0,1-.15-.33v-.06Z"/><path d="M198.53,56.38s-.3.8-2.45,1.36a10.74,10.74,0,0,1-5-.34,2.91,2.91,0,0,0-1.66,2.69c-.1,2.44.29,8.87.18,8.81a21.46,21.46,0,0,1-5.38-.87c-2.14-.82-2.14-2.46-2.14-4.27s.42-8.44,1.56-10.4,2.84-4.09,7.53-4.09a8.29,8.29,0,0,1,6,2.31A6.87,6.87,0,0,1,198.53,56.38Z"/></g></g></svg>