<svg xmlns="http://www.w3.org/2000/svg" xmlns:xlink="http://www.w3.org/1999/xlink" viewBox="0 0 640.84 454.74"><defs><style>.cls-1{fill:url(#linear-gradient);}.cls-2{fill:#525252;}.cls-3{fill:#262626;}.cls-4{fill:url(#linear-gradient-2);}.cls-5{fill:url(#linear-gradient-3);}.cls-6{fill:url(#linear-gradient-4);}.cls-7{fill:#92efec;}.cls-8{fill:#11d3d3;}.cls-9{fill:#00b2a9;}.cls-10{fill:#ccc;}.cls-11{fill:#161616;fill-rule:evenodd;}.cls-12{fill:#fff;}.cls-13{fill:#08a0f4;}.cls-14{fill:#0075c4;}.cls-15{fill:#8d8d8d;}.cls-16{fill:url(#linear-gradient-5);}.cls-17{fill:url(#linear-gradient-6);}.cls-18{fill:url(#linear-gradient-7);}.cls-19{fill:url(#linear-gradient-8);}.cls-20{fill:url(#linear-gradient-9);}.cls-21{fill:url(#linear-gradient-10);}</style><linearGradient id="linear-gradient" x1="333.94" y1="124.13" x2="365.83" y2="176.65" gradientUnits="userSpaceOnUse"><stop offset="0" stop-opacity="0.3"/><stop offset="1" stop-opacity="0"/></linearGradient><linearGradient id="linear-gradient-2" x1="225.65" y1="194.15" x2="257.53" y2="246.67" xlink:href="#linear-gradient"/><linearGradient id="linear-gradient-3" x1="448.09" y1="191.43" x2="479.98" y2="243.95" xlink:href="#linear-gradient"/><linearGradient id="linear-gradient-4" x1="339.85" y1="255.63" x2="371.74" y2="308.16" xlink:href="#linear-gradient"/><linearGradient id="linear-gradient-5" x1="288.35" y1="102.46" x2="287.43" y2="109.47" xlink:href="#linear-gradient"/><linearGradient id="linear-gradient-6" x1="557.99" y1="255.63" x2="589.88" y2="308.16" xlink:href="#linear-gradient"/><linearGradient id="linear-gradient-7" x1="448.03" y1="322.24" x2="479.91" y2="374.77" xlink:href="#linear-gradient"/><linearGradient id="linear-gradient-8" x1="114.74" y1="257.22" x2="146.63" y2="309.75" xlink:href="#linear-gradient"/><linearGradient id="linear-gradient-9" x1="224.34" y1="323.77" x2="256.23" y2="376.3" xlink:href="#linear-gradient"/><linearGradient id="linear-gradient-10" x1="338.19" y1="388.73" x2="370.08" y2="441.25" xlink:href="#linear-gradient"/></defs><g id="Layer_2" data-name="Layer 2"><g id="content"><polygon class="cls-1" points="350.93 114.08 285.06 152.11 350.93 190.14 350.93 190.14 350.93 190.14 350.93 190.14 350.93 190.14 416.79 152.11 350.93 114.08 350.93 114.08 350.93 114.08 350.93 114.08 350.93 114.08"/><polygon class="cls-2" points="285.06 0 219.2 38.03 285.06 76.06 285.06 76.06 285.06 76.06 285.06 76.06 285.06 76.06 350.93 38.03 285.06 0 285.06 0 285.06 0 285.06 0 285.06 0"/><polygon class="cls-3" points="285.06 152.11 285.06 76.06 219.2 38.03 219.2 114.08 285.06 152.11"/><polygon points="350.93 114.08 350.93 38.03 285.06 76.06 285.06 152.11 350.93 114.08"/><polygon class="cls-4" points="242.63 184.1 176.77 222.13 242.63 260.16 242.63 260.16 242.63 260.16 242.63 260.16 242.63 260.16 308.5 222.13 242.63 184.1 242.63 184.1 242.63 184.1 242.63 184.1 242.63 184.1"/><polygon class="cls-2" points="176.77 70.02 110.9 108.05 176.77 146.08 176.77 146.08 176.77 146.08 176.77 146.08 176.77 146.08 242.63 108.05 176.77 70.02 176.77 70.02 176.77 70.02 176.77 70.02 176.77 70.02"/><polygon class="cls-3" points="176.77 222.13 176.77 146.08 110.9 108.05 110.9 184.1 176.77 222.13"/><polygon points="242.63 184.1 242.63 108.05 176.77 146.08 176.77 222.13 242.63 184.1"/><polygon class="cls-5" points="465.08 181.38 399.21 219.41 465.08 257.43 465.08 257.43 465.08 257.43 465.08 257.43 465.08 257.43 530.94 219.41 465.08 181.38 465.08 181.38 465.08 181.38 465.08 181.38 465.08 181.38"/><polygon class="cls-2" points="399.21 67.3 333.35 105.33 399.21 143.35 399.21 143.35 399.21 143.35 399.21 143.35 399.21 143.35 465.08 105.33 399.21 67.3 399.21 67.3 399.21 67.3 399.21 67.3 399.21 67.3"/><polygon class="cls-3" points="399.21 219.41 399.21 143.35 333.35 105.33 333.35 181.38 399.21 219.41"/><polygon points="465.08 181.38 465.08 105.33 399.21 143.35 399.21 219.41 465.08 181.38"/><polygon class="cls-6" points="356.83 245.59 290.97 283.61 356.83 321.64 356.83 321.64 356.83 321.64 356.83 321.64 356.83 321.64 422.7 283.61 356.83 245.59 356.83 245.59 356.83 245.59 356.83 245.59 356.83 245.59"/><polygon class="cls-7" points="290.97 131.51 225.1 169.53 290.97 207.56 290.97 207.56 290.97 207.56 290.97 207.56 290.97 207.56 356.83 169.53 290.97 131.51 290.97 131.5 290.97 131.5 290.97 131.5 290.97 131.51"/><polygon class="cls-8" points="290.97 283.61 290.97 207.56 225.1 169.53 225.1 245.59 290.97 283.61"/><polygon class="cls-9" points="356.83 245.59 356.83 169.53 290.97 207.56 290.97 283.62 356.83 245.59"/><path class="cls-10" d="M267.21,232.68c.16-2-.69-4-2.84-3-1.67.8-3.74,2.14-3.17,6.25s-.1,3.85-2.45,6.89c-2.46,3.19,3.84,6.72,8,4.29,1.93-1.12,3.05-3.58,1.95-5.17C267.09,239.63,267.09,234.18,267.21,232.68Z"/><path class="cls-11" d="M267.71,239.69a18.54,18.54,0,0,1,1.49,2.86,8.6,8.6,0,0,1,.43,2.4c.12,1.36-1.15,4-1.15,4a16,16,0,0,1-3.67,1.86l-1-.36a12.52,12.52,0,0,0-4,3.1c-1.69,2-3.44,3.07-8.27,3.6-4.56.51-3.48-2.06-1.52-4A55.63,55.63,0,0,0,258.12,243c2.14-3.66,3.31-3.69,5-2.2C265.22,242.64,266.56,242.1,267.71,239.69Z"/><path class="cls-10" d="M273.26,139.46c-2.1,6.48-9.18,14.68-9.79,15.76-.7,1.25-1.74,2.68-2.77,2.85s-2-.22-1.57-1.81c1.82-6.21,3.05-11,8.12-18,.62-.85,3.34-4.2,5.59-3.26C274.74,135.81,273.75,138,273.26,139.46Z"/><path class="cls-10" d="M246,221.1c.15-1.89-.67-3.87-2.75-2.87-1.61.76-3.62,2.07-3.06,6,.57,4.14-.1,3.73-2.38,6.68s3.71,6.5,7.76,4.15c1.87-1.08,2.94-3.47,1.88-5C245.84,227.83,245.84,222.55,246,221.1Z"/><path class="cls-12" d="M239.16,173.09a152.34,152.34,0,0,1,15.64-11.26c3.3-1.94,9-5.54,13.95-7,1.15-.35,1.81-2.68,2.33-4.09l29.42,8.5A65.54,65.54,0,0,1,301.72,174a10.47,10.47,0,0,1-4.54,8.51c-7.35,5.21-23.59,11.55-29,13.19a91.52,91.52,0,0,1,2,12.94c.06,4.25-1.71,22.84-2.33,28.31,0,.26-.37,1.67-3.37,1.6-2.07-.05-3.55-1.41-3.63-2.05-1.14-9.19-4.52-36.75-5.27-40.26-1.19-5.6,1-7.82,2.5-9.44a122.9,122.9,0,0,1,10-9.13c-3.17,1.06-15,4.8-20.85,6a92.42,92.42,0,0,1,1.89,12.74c.06,4.24-1.86,23-2.39,28.43-.05.54-.52,1.8-3,1.73-2.24-.06-3.91-1.22-4.05-2.18-1.35-9.17-4.4-36.87-5.11-40.39C233.56,179.26,234.11,177.2,239.16,173.09Z"/><path class="cls-11" d="M246.43,227.89a17.69,17.69,0,0,1,1.45,2.77,8.39,8.39,0,0,1,.42,2.32c.11,1.32-1.12,3.85-1.12,3.85a15.83,15.83,0,0,1-3.56,1.8l-1-.35a12.22,12.22,0,0,0-3.91,3c-1.63,2-3.33,3-8,3.49-4.41.49-3.37-2-1.47-3.89a54.12,54.12,0,0,0,7.87-9.76c2.07-3.55,3.2-3.57,4.86-2.13C244,230.74,245.32,230.22,246.43,227.89Z"/><path class="cls-10" d="M268.1,139c1-9.27.59-16,1.34-21.16.79-5.4,2.76-9.21,4.95-10.59,2.38-1.49,3.63-.62,3.76,1.93.2,4.14-1.38,27.12-6.14,31.25C269.63,142.53,267.93,140.54,268.1,139Z"/><path class="cls-13" d="M269,123s.41-4.63.9-7,1.25-8.12,4.8-9c1.31-.33,8.87-1,10.67-1.09a10,10,0,0,1,5.4,1,86.16,86.16,0,0,1,12.35,8.28c4.4,3.27-7.26,38-7.26,32.06,0,2.77,3.56,8.92,4.63,11.94.71,2-2,4.87-5.64,5.74-6.95,1.63-16.21-1.72-20.22-5.46a14,14,0,0,1-4.26-6.81c.79-4,2.82-6.91,3.16-9.36.44-3.08-.24-5.21-.39-7.15-.15-1.77,0-5.7,0-5.7-2-2-3.19-4.46-2.31-6.94h0S269.44,123.49,269,123Z"/><path class="cls-14" d="M300.5,159.22c.25.67.42,2.5-2.32,4.25-3.63,2.32-8.47,1.91-11.26,1.39-2.14-.4,1.11-5.28,1.91-13.13.62-6-1.46-14.45,1.22-16.24,4.07-2.74,6.73-11.9,6.73-11.9l1.36,10.09.52,6.08s-2.6,6.13-2.67,7.44C295.9,149.18,299.34,156.2,300.5,159.22Z"/><path class="cls-2" d="M233.16,171.33h0a.57.57,0,0,1,.32-.49L252,159.68a2.16,2.16,0,0,1,1.93,0l26.86,14.8a.78.78,0,0,1,.48.65h0l0,1.28h0a.57.57,0,0,1-.31.47l-18.48,11.16a2.14,2.14,0,0,1-1.92-.05l-26.87-14.81a.75.75,0,0,1-.47-.64h0Z"/><path class="cls-15" d="M280.74,174.53l-26.86-14.8a2.16,2.16,0,0,0-1.93,0l-18.47,11.16c-.49.29-.41.79.16,1.11l26.86,14.81a2.15,2.15,0,0,0,1.93,0l18.47-11.16C281.39,175.35,281.31,174.85,280.74,174.53Z"/><path class="cls-10" d="M282.09,105.06l9.39-7.65s-.12,7.88-.12,9c0,1.66,3.05,2.74,2.54,4.45-.45,1.49-2.85,3.1-6.91,3.29-2.24.11-5.49-1.34-6.19-2.9-.77-1.74,1.33-2.77,1.33-3.06C282.13,107.72,282.09,105.06,282.09,105.06Z"/><path class="cls-16" d="M282.09,105.06l9.39-7.41s-.12,7.64-.12,8.8c0,1.66,3.05,2.74,2.54,4.45-.45,1.49-2.85,3.1-6.91,3.29-2.24.11-5.49-1.34-6.19-2.9-.77-1.74,1.33-2.77,1.33-3.06C282.13,107.72,282.09,105.06,282.09,105.06Z"/><path class="cls-10" d="M276.15,91.21c.08-5.53,4.64-11.21,10.18-11.21a10,10,0,0,1,10,10,10.69,10.69,0,0,1-2.95,7.83,2.31,2.31,0,0,1-2.71.57s-.63,3.61-2.07,4.37a49.77,49.77,0,0,1-5.24,2.36c-2.67.9-4.58.9-4.83-.6-.42-2.49-2.86-4.35-2.34-8.6a21.59,21.59,0,0,0,.39-2.26C276.59,92.85,276.14,92.16,276.15,91.21Z"/><path class="cls-10" d="M295.86,154.17c-2.62-8.58,0-18.72,1.91-32.47a8.86,8.86,0,0,1,3.38-5.87c2.23-1.54,3.66,2.56,4.16,4.81.61,2.74-1.69,19.63-3.58,29.15a9.37,9.37,0,0,1-2.34,5C297.83,156.23,296.3,155.58,295.86,154.17Z"/><path class="cls-10" d="M299.41,155.25c-5,6-20.51,15.28-21.7,15.92-1.35.72-1.74-.46-1.84-1.23a4.28,4.28,0,0,1,1.25-3.6c2.66-3.11,14.54-16.78,22-20.82,1-.53,2.29-.48,2.65,2.44C302.19,151,300,154.51,299.41,155.25Z"/><path class="cls-10" d="M277.42,166.17c.51-.25,1.5-.75,1.9.59a4.44,4.44,0,0,1-.7,3.29,11,11,0,0,1-2.35,2.51,7.61,7.61,0,0,1-3.49,1.47,30.4,30.4,0,0,0-2.35,3.7c-.44.85-1.17.52-1,.12s.83-2.87,1.06-3.71a.1.1,0,0,0-.16-.1,11.65,11.65,0,0,0-1.2,1,16.32,16.32,0,0,0-1.18,2.1c-.44,1-1.31.76-1.24.49a19.3,19.3,0,0,1,.71-2.55c.23-.38.81-1.57.81-1.57s0-.09-.07-.05a12.5,12.5,0,0,0-1.39,1.12,2.76,2.76,0,0,0-.93,1.24c-.35.91-1.25.49-1.15.22a12.17,12.17,0,0,1,.76-1.87c.24-.35,1.06-1.24,1.06-1.24s0-.13-.08-.09-1.15.57-1.56.75c-1.09.46-1.71-.08-1.42-.3,1.31-1,4.18-3.55,5.81-4.33C270.52,168.31,275.69,167,277.42,166.17Z"/><path class="cls-13" d="M304.84,133.38s-.18,2.19-4.74,1.34c-5-.92-4.55-2.6-4.55-2.6a78.87,78.87,0,0,1,1.77-10.2c.81-3.35,3.12-6.43,5.06-6.86,1.64-.36,3.23,3.81,3.15,6.88A102.79,102.79,0,0,1,304.84,133.38Z"/><path class="cls-10" d="M259.64,155.24c-1.77,3.34-5.14,6.85-4.64,9.08,0,0,.86,1.87,1.4,3a4.65,4.65,0,0,0,3.06,2c.3.08,2,1.82,2.5,1.7.75-.16,1-.66-.13-3.09s-.48-3.41-.48-3.41c.18,1.27.52,3.34,1.39,3,.57-.21.27-2.31.31-4a6.81,6.81,0,0,0-.87-3.12c-.37-.82-.76-.93-.45-1.89a19,19,0,0,1,1.11-2.23C264.84,152.66,261.5,151.74,259.64,155.24Z"/><path class="cls-2" d="M257,162.73a3.37,3.37,0,0,0-1.08-1.65l-27.06-15.32h0c-.4-.23-.79.38-.73.84l4.76,25.55a1.47,1.47,0,0,0,.71,1.06l27.08,15a.51.51,0,0,0,.56,0,.55.55,0,0,0,.21-.46s0-.05,0-.07Z"/><path d="M276.15,90.43s.06-2,3.1-1.37c2.4.48,4.55-.36,5.28-2.4a5,5,0,0,0,1.72,3.87c1.88,1.88,2,.68,2.17,3.61.14,2.45,2.13,1.73,2.13,3.51,0,2.49.9,2.67.9,2.67,4.09-2.54,6.15-6.31,4.91-13.1-.79-4.31-4-7.64-10.51-7.64-3.33,0-6.7,1.31-8.36,3.24S275.31,88.64,276.15,90.43Z"/><path d="M290.76,85.81c-2.39-4.14-1.52-6.69.86-6.93,3.76-.36,6.12,4.84,6.58,9.62.27,2.83.1,12.71,0,14.48-.24,3.57-.81,9.86-5.23,11.67-4.16,1.7-6.09,3.49-6.29,5.7-1.79-1.8-2.18-6.73,1.08-10.67,2.77-3.37,3.67-6,3.67-9.68C291.41,97.56,293.15,90,290.76,85.81Z"/><path class="cls-10" d="M292.71,95.44c0,1.73-.78,3.69-1.74,3.69s-1.74-1.39-1.74-3.12.78-3.12,1.74-3.12S292.71,93.72,292.71,95.44Z"/><polygon class="cls-17" points="574.98 245.59 509.12 283.61 574.98 321.64 574.98 321.64 574.98 321.64 574.98 321.64 574.98 321.64 640.85 283.61 574.98 245.59 574.98 245.59 574.98 245.59 574.98 245.59 574.98 245.59"/><polygon class="cls-2" points="509.12 131.51 443.25 169.53 509.12 207.56 509.12 207.56 509.12 207.56 509.12 207.56 509.12 207.56 574.98 169.53 509.12 131.51 509.12 131.5 509.12 131.5 509.12 131.5 509.12 131.51"/><polygon class="cls-3" points="509.12 283.61 509.12 207.56 443.25 169.53 443.25 245.59 509.12 283.61"/><polygon points="574.98 245.59 574.98 169.53 509.12 207.56 509.12 283.62 574.98 245.59"/><polygon class="cls-18" points="465.01 312.2 399.15 350.23 465.01 388.25 465.01 388.25 465.01 388.25 465.01 388.25 465.01 388.25 530.88 350.23 465.01 312.2 465.01 312.2 465.01 312.2 465.01 312.2 465.01 312.2"/><polygon class="cls-2" points="399.15 198.12 333.28 236.14 399.15 274.17 399.15 274.17 399.15 274.17 399.15 274.17 399.15 274.17 465.01 236.14 399.15 198.12 399.15 198.12 399.15 198.12 399.15 198.12 399.15 198.12"/><polygon class="cls-3" points="399.15 350.23 399.15 274.17 333.28 236.14 333.28 312.2 399.15 350.23"/><polygon points="465.01 312.2 465.01 236.14 399.15 274.17 399.15 350.23 465.01 312.2"/><polygon class="cls-19" points="131.73 247.18 65.86 285.2 131.73 323.23 131.73 323.23 131.73 323.23 131.73 323.23 131.73 323.23 197.59 285.2 131.73 247.18 131.73 247.18 131.73 247.18 131.73 247.18 131.73 247.18"/><polygon class="cls-2" points="65.86 133.1 0 171.12 65.86 209.15 65.86 209.15 65.86 209.15 65.86 209.15 65.86 209.15 131.73 171.12 65.86 133.1 65.86 133.1 65.86 133.1 65.86 133.1 65.86 133.1"/><polygon class="cls-3" points="65.86 285.2 65.86 209.15 0 171.12 0 247.18 65.86 285.2"/><polygon points="131.73 247.18 131.73 171.12 65.86 209.15 65.86 285.2 131.73 247.18"/><polygon class="cls-20" points="241.33 313.73 175.46 351.75 241.33 389.78 241.33 389.78 241.33 389.78 241.33 389.78 241.33 389.78 307.19 351.75 241.33 313.73 241.33 313.73 241.33 313.73 241.33 313.73 241.33 313.73"/><polygon class="cls-2" points="175.46 199.64 109.6 237.67 175.46 275.7 175.46 275.7 175.46 275.7 175.46 275.7 175.46 275.7 241.33 237.67 175.46 199.64 175.46 199.64 175.46 199.64 175.46 199.64 175.46 199.64"/><polygon class="cls-3" points="175.46 351.75 175.46 275.7 109.6 237.67 109.6 313.73 175.46 351.75"/><polygon points="241.33 313.73 241.33 237.67 175.46 275.7 175.46 351.75 241.33 313.73"/><polygon class="cls-21" points="355.18 378.68 289.31 416.71 355.18 454.74 355.18 454.74 355.18 454.74 355.18 454.74 355.18 454.74 421.04 416.71 355.18 378.68 355.18 378.68 355.18 378.68 355.18 378.68 355.18 378.68"/><polygon class="cls-2" points="289.31 264.6 223.45 302.63 289.31 340.65 289.31 340.65 289.31 340.65 289.31 340.65 289.31 340.65 355.18 302.63 289.31 264.6 289.31 264.6 289.31 264.6 289.31 264.6 289.31 264.6"/><polygon class="cls-3" points="289.31 416.71 289.31 340.65 223.45 302.63 223.45 378.68 289.31 416.71"/><polygon points="355.18 378.68 355.18 302.63 289.31 340.66 289.31 416.71 355.18 378.68"/></g></g></svg>