<svg xmlns="http://www.w3.org/2000/svg" xmlns:xlink="http://www.w3.org/1999/xlink" viewBox="0 0 518.81 408.59"><defs><style>.cls-1{fill:url(#linear-gradient);}.cls-2{fill:url(#linear-gradient-2);}.cls-3{fill:#64c0f9;}.cls-4{fill:#08a0f4;}.cls-5{fill:#0075c4;}.cls-6{fill:#fff;}.cls-7{fill:#92efec;}.cls-8{fill:#11d3d3;}.cls-9{fill:#b3b3b3;}.cls-10{fill:#00b2a9;}.cls-11{fill:#e6e6e6;}.cls-12{fill:url(#linear-gradient-3);}.cls-13{fill:url(#linear-gradient-4);}.cls-14{fill:url(#linear-gradient-5);}</style><linearGradient id="linear-gradient" x1="342.86" y1="265.3" x2="399.08" y2="365.76" gradientUnits="userSpaceOnUse"><stop offset="0"/><stop offset="1" stop-opacity="0"/></linearGradient><linearGradient id="linear-gradient-2" x1="175.46" y1="253.89" x2="199.65" y2="287.82" xlink:href="#linear-gradient"/><linearGradient id="linear-gradient-3" x1="350.66" y1="362.86" x2="278.62" y2="192.58" gradientUnits="userSpaceOnUse"><stop offset="0" stop-opacity="0.3"/><stop offset="1" stop-opacity="0"/></linearGradient><linearGradient id="linear-gradient-4" x1="82.2" y1="306.87" x2="105.05" y2="344.49" xlink:href="#linear-gradient"/><linearGradient id="linear-gradient-5" x1="329.87" y1="164.86" x2="352.15" y2="201.57" gradientUnits="userSpaceOnUse"><stop offset="0" stop-color="#1b546d" stop-opacity="0.5"/><stop offset="1" stop-color="#1b546d" stop-opacity="0"/></linearGradient></defs><g id="Layer_2" data-name="Layer 2"><g id="content"><polygon class="cls-1" points="377.34 245.23 235.86 326.91 377.34 408.59 377.34 408.59 377.34 408.59 377.34 408.59 377.34 408.59 518.81 326.91 377.34 245.23 377.34 245.23 377.34 245.23 377.34 245.23 377.34 245.23"/><polygon class="cls-2" points="188.68 245.19 141.49 272.43 188.68 299.67 188.68 299.67 188.68 299.67 188.68 299.67 188.68 299.67 235.86 272.43 188.68 245.19 188.68 245.18 188.68 245.18 188.68 245.18 188.68 245.19"/><polygon class="cls-3" points="47.19 217.94 0 245.18 47.19 272.43 47.19 272.43 47.19 272.43 47.19 272.43 47.19 272.43 94.37 245.18 47.19 217.94 47.19 217.94 47.19 217.94 47.19 217.94 47.19 217.94"/><polygon class="cls-4" points="47.19 326.91 47.19 272.43 0 245.18 0 299.67 47.19 326.91"/><polygon class="cls-5" points="94.37 299.67 94.37 245.18 47.19 272.43 47.19 326.91 94.37 299.67"/><polygon class="cls-6" points="235.86 217.94 283.05 190.7 235.86 163.46 235.86 163.46 235.86 163.46 235.86 163.46 235.86 163.46 188.68 190.7 235.86 217.94 235.86 217.94 235.86 217.94 235.86 217.94 235.86 217.94"/><polygon class="cls-7" points="330.23 54.48 283.05 27.24 235.86 0 188.68 27.24 235.86 54.48 188.68 81.73 141.49 108.97 188.68 136.21 235.86 108.97 283.05 81.73 330.23 108.97 377.42 81.73 330.23 54.48"/><polygon class="cls-3" points="283.05 81.73 235.86 108.97 283.05 136.21 330.23 108.97 283.05 81.73"/><polygon class="cls-6" points="141.49 54.48 94.3 81.73 141.49 108.97 188.68 81.73 141.49 54.48"/><polygon class="cls-3" points="377.42 190.7 330.23 163.46 330.23 217.94 377.42 190.7"/><polygon class="cls-4" points="188.68 245.18 188.68 299.67 235.86 326.91 235.86 272.43 188.68 245.18"/><polygon class="cls-4" points="235.86 108.97 235.86 163.46 283.05 190.7 283.05 136.21 235.86 108.97"/><polygon class="cls-8" points="188.68 27.24 188.68 81.73 235.86 54.48 188.68 27.24"/><polygon class="cls-9" points="141.49 217.94 141.49 272.43 188.68 245.18 141.49 217.94"/><polygon class="cls-9" points="235.86 217.94 235.86 272.43 283.05 245.18 283.05 190.7 235.86 217.94"/><polygon class="cls-10" points="330.23 108.97 330.23 163.46 377.42 136.21 377.42 81.73 330.23 108.97"/><polygon class="cls-10" points="188.68 136.21 188.68 190.7 235.86 163.46 235.86 108.97 188.68 136.21"/><polygon class="cls-11" points="188.68 190.7 141.49 163.46 141.49 108.97 94.3 81.73 94.3 136.21 94.3 190.7 94.3 245.18 141.49 272.43 141.49 217.94 188.68 245.18 235.86 272.43 235.86 217.94 188.68 190.7"/><polygon class="cls-5" points="330.23 217.94 330.23 163.46 330.23 108.97 283.05 136.21 283.05 190.7 283.05 245.18 235.86 272.43 235.86 326.91 283.05 299.67 330.23 272.43 377.42 245.18 377.42 190.7 330.23 217.94"/><polygon class="cls-8" points="188.68 136.21 141.49 108.97 141.49 163.46 141.49 163.46 141.49 163.46 141.49 163.46 141.49 163.46 188.68 190.7 188.68 136.21 188.68 136.21"/><polygon class="cls-12" points="330.23 217.94 330.23 163.46 330.23 108.97 283.05 136.21 283.05 190.7 283.05 245.18 235.86 272.43 235.86 326.91 283.05 299.67 330.23 272.43 377.42 245.18 377.42 190.7 330.23 217.94"/><polygon class="cls-13" points="94.37 299.67 47.19 326.91 94.37 354.15 94.37 354.15 94.37 354.15 94.37 354.15 94.37 354.15 141.56 326.91 94.37 299.67 94.37 299.67 94.37 299.67 94.37 299.67 94.37 299.67"/><polygon class="cls-14" points="330.23 163.46 330.23 217.94 330.23 217.94 330.23 217.94 330.23 217.94 330.23 217.94 377.42 190.7 330.23 163.46 330.23 163.46 330.23 163.46 330.23 163.46 330.23 163.46"/></g></g></svg>