<?xml version="1.0" encoding="UTF-8"?>
<svg width="32px" height="32px" viewBox="0 0 32 32" version="1.1" xmlns="http://www.w3.org/2000/svg" xmlns:xlink="http://www.w3.org/1999/xlink">
    <title>logo--instagram</title>
    <g id="Page-1" stroke="none" stroke-width="1" fill="none" fill-rule="evenodd">
        <g id="logo--instagram">
            <circle id="Oval" fill="#FFFFFF" fill-rule="nonzero" cx="22.4056" cy="9.5944" r="1.44"></circle>
            <path d="M16,9.8378 C12.5967109,9.8378 9.8378,12.5967109 9.8378,16 C9.8378,19.4032891 12.5967109,22.1622 16,22.1622 C19.4032891,22.1622 22.1622,19.4032891 22.1622,16 C22.1622,12.5967109 19.4032891,9.8378 16,9.8378 L16,9.8378 Z M16,20 C13.790861,20 12,18.209139 12,16 C12,13.790861 13.790861,12 16,12 C18.209139,12 20,13.790861 20,16 C20,17.060866 19.5785726,18.0782816 18.8284271,18.8284271 C18.0782816,19.5785726 17.060866,20 16,20 Z" id="Shape" fill="#FFFFFF" fill-rule="nonzero"></path>
            <path d="M16,6.1621 C19.2041,6.1621 19.5837,6.1744 20.849,6.2322 C21.6099535,6.24125859 22.3636903,6.38102615 23.0773,6.6454 C24.1237635,7.04919396 24.950906,7.87633646 25.3547,8.9228 C25.6190739,9.63640969 25.7588414,10.3901465 25.7679,11.1511 C25.8256,12.4164 25.8379,12.796 25.8379,16.0001 C25.8379,19.2042 25.8257,19.5838 25.7679,20.8491 C25.7588414,21.6100535 25.6190739,22.3637903 25.3547,23.0774 C24.950906,24.1238635 24.1237635,24.951006 23.0773,25.3548 C22.3636903,25.6191739 21.6099535,25.7589414 20.849,25.768 C19.5838,25.8257 19.2044,25.838 16,25.838 C12.7956,25.838 12.4162,25.8258 11.151,25.768 C10.3900465,25.7589414 9.63630969,25.6191739 8.9227,25.3548 C7.87623646,24.951006 7.04909396,24.1238635 6.6453,23.0774 C6.38092615,22.3637903 6.24115859,21.6100535 6.2321,20.8491 C6.1744,19.5838 6.1621,19.2042 6.1621,16.0001 C6.1621,12.796 6.1743,12.4164 6.2321,11.1511 C6.24115859,10.3901465 6.38092615,9.63640969 6.6453,8.9228 C7.0490705,7.87629853 7.87621626,7.04911645 8.9227,6.6453 C9.63630969,6.38092615 10.3900465,6.24115859 11.151,6.2321 C12.4163,6.1744 12.7959,6.1621 16,6.1621 M16,4 C12.741,4 12.3323,4.0138 11.0524,4.0722 C10.0570504,4.0921831 9.07229403,4.28078944 8.14,4.63 C6.52786856,5.25343194 5.25343194,6.52786856 4.63,8.14 C4.28073397,9.07245185 4.09212673,10.057382 4.0722,11.0529 C4.0138,12.3323 4,12.741 4,16 C4,19.259 4.0138,19.6677 4.0722,20.9476 C4.0921383,21.9431168 4.28074517,22.928045 4.63,23.8605 C5.25343194,25.4726314 6.52786856,26.7470681 8.14,27.3705 C9.07245185,27.719766 10.057382,27.9083733 11.0529,27.9283 C12.3323,27.9862 12.741,28 16,28 C19.259,28 19.6677,27.9862 20.9476,27.9278 C21.9431168,27.9078617 22.928045,27.7192548 23.8605,27.37 C25.4726314,26.7465681 26.7470681,25.4721314 27.3705,23.86 C27.7197548,22.927545 27.9083617,21.9426168 27.9283,20.9471 C27.9862,19.6677 28,19.259 28,16 C28,12.741 27.9862,12.3323 27.9278,11.0524 C27.9078169,10.0570504 27.7192106,9.07229403 27.37,8.14 C26.746451,6.52805815 25.4720307,5.25381934 23.86,4.6305 C22.927545,4.28124517 21.9426168,4.0926383 20.9471,4.0727 C19.6677,4.0138 19.259,4 16,4 Z" id="Shape" fill="#FFFFFF" fill-rule="nonzero"></path>
            <rect id="_Transparent_Rectangle_" x="0" y="0" width="32" height="32"></rect>
        </g>
    </g>
</svg>