<svg xmlns="http://www.w3.org/2000/svg" viewBox="0 0 510 510"><defs><style>.cls-1{fill:#fff;}</style></defs><g id="Layer_2" data-name="Layer 2"><g id="icon"><circle class="cls-1" cx="391" cy="119" r="29.75"/><path class="cls-1" d="M255,123.25c-72.25,0-131.75,59.5-131.75,131.75S182.75,386.75,255,386.75,386.75,327.25,386.75,255,327.25,123.25,255,123.25ZM255,340a85,85,0,1,1,85-85A85.25,85.25,0,0,1,255,340Z"/><path class="cls-1" d="M255,46.75c68,0,76.5,0,102,2.12,17,0,31.87,2.13,46.75,8.5,21.25,8.5,40.37,25.5,48.87,48.88,6.38,14.87,8.5,31.87,8.5,46.75,2.13,27.62,2.13,34,2.13,102s0,76.5-2.13,102c0,17-2.12,31.87-8.5,46.75-8.5,21.25-25.5,40.37-48.87,48.87-14.88,6.38-31.87,8.5-46.75,8.5-27.62,2.13-34,2.13-102,2.13s-76.5,0-102-2.13c-17,0-31.88-2.12-46.75-8.5-21.25-8.5-40.38-25.5-48.88-48.87-6.37-14.88-8.5-31.87-8.5-46.75-2.12-27.62-2.12-34-2.12-102s0-76.5,2.12-102c0-17,2.13-31.88,8.5-46.75,6.38-23.37,25.51-42.5,46.75-51,14.88-6.38,31.88-8.5,46.75-8.5H255M255,0c-70.13,0-78.62,0-104.12,2.12A152.47,152.47,0,0,0,89.25,14.87C53.12,27.63,27.63,53.12,12.75,87.13A287.53,287.53,0,0,0,0,148.75V255c0,70.12,0,78.63,2.12,104.12a152.47,152.47,0,0,0,12.75,61.63,128.35,128.35,0,0,0,74.38,74.37,287.49,287.49,0,0,0,61.63,12.75C176.38,510,184.87,510,255,510s78.63,0,104.12-2.13a152.47,152.47,0,0,0,61.63-12.75,128.33,128.33,0,0,0,74.37-74.37,287.75,287.75,0,0,0,12.75-61.63C510,333.63,510,325.12,510,255s0-78.62-2.13-104.12a152.47,152.47,0,0,0-12.75-61.63,128.33,128.33,0,0,0-74.37-74.37A287.75,287.75,0,0,0,359.12,2.13C333.63,0,325.12,0,255,0Z"/></g></g></svg>